<?xml version="1.0" standalone="no"?>
<!DOCTYPE svg PUBLIC "-//W3C//DTD SVG 20010904//EN"
 "http://www.w3.org/TR/2001/REC-SVG-20010904/DTD/svg10.dtd">
<svg version="1.0" xmlns="http://www.w3.org/2000/svg"
 width="512.000000pt" height="512.000000pt" viewBox="0 0 512.000000 512.000000"
 preserveAspectRatio="xMidYMid meet">
<metadata>
Created by potrace 1.16, written by Peter Selinger 2001-2019
</metadata>
<g transform="translate(0.000000,512.000000) scale(0.100000,-0.100000)"
fill="#000000" stroke="none">
<path d="M3030 4898 c0 -18 26 -140 45 -208 19 -70 20 -223 2 -238 -7 -6 -32
-14 -55 -18 -40 -6 -43 -4 -106 52 -157 144 -338 203 -585 191 -186 -9 -325
-63 -435 -170 -35 -34 -68 -70 -73 -80 -8 -16 -17 -17 -63 -11 l-53 7 6 91 c6
91 20 162 55 289 11 37 17 67 13 67 -3 0 -32 -24 -63 -54 -65 -62 -126 -180
-192 -369 -5 -15 -13 -18 -44 -13 -20 3 -82 8 -137 11 -143 9 -151 11 -176 53
-28 46 -67 95 -85 105 -17 10 -213 33 -362 42 -88 6 -112 5 -112 -5 0 -7 25
-46 55 -86 35 -46 51 -75 44 -80 -7 -4 -9 -22 -6 -44 4 -34 0 -44 -45 -98 -27
-34 -47 -65 -44 -70 3 -5 86 -12 183 -16 98 -4 199 -9 226 -12 l47 -6 68 70
67 70 70 -8 c39 -5 104 -11 146 -15 l76 -6 7 -60 c11 -111 61 -171 153 -185
l43 -6 0 -61 c0 -42 5 -66 17 -79 9 -10 11 -18 5 -18 -39 0 -59 -138 -29 -197
12 -22 15 -45 11 -76 -6 -43 -8 -45 -48 -50 -48 -7 -139 -42 -179 -70 -22 -15
-47 -19 -125 -20 -82 -2 -106 -6 -153 -28 -55 -26 -61 -27 -205 -22 l-149 4
-70 -37 c-38 -20 -88 -46 -110 -58 -32 -17 -55 -20 -119 -18 -65 2 -84 -2
-112 -19 -50 -31 -74 -66 -74 -110 0 -21 -11 -72 -24 -112 -55 -167 -59 -412
-11 -632 39 -182 65 -335 65 -388 0 -41 -3 -50 -20 -54 -12 -3 -52 -20 -90
-39 -79 -38 -83 -43 -130 -197 l-34 -108 23 -52 c19 -42 71 -177 71 -184 0 -7
76 -24 92 -20 11 3 34 -3 51 -14 18 -10 48 -19 67 -19 86 0 311 -55 304 -74
-6 -17 21 -68 31 -58 5 4 5 1 1 -5 -8 -15 17 -57 27 -46 4 3 7 -1 7 -11 0 -10
4 -25 10 -35 9 -17 14 -18 77 -5 38 8 149 25 248 39 99 14 207 31 240 39 59
14 56 14 -145 17 -113 2 -244 2 -292 0 -102 -4 -123 15 -26 22 35 3 86 10 113
15 28 6 92 19 143 28 97 18 122 40 41 37 -33 -1 -38 0 -19 6 21 6 15 9 -35 19
-108 21 -153 21 -175 2 -11 -9 -16 -21 -12 -25 4 -5 1 -5 -7 0 -11 6 -7 15 21
40 l35 32 179 -43 c98 -24 233 -56 299 -70 66 -15 114 -29 108 -31 -34 -12 -5
-20 65 -18 96 3 90 2 96 23 3 9 29 30 58 46 58 33 53 42 -13 27 -24 -5 -48 -6
-54 -2 -12 10 -230 62 -505 121 -107 23 -201 45 -209 49 -8 4 -17 16 -21 26
-7 18 -3 20 34 20 59 1 195 23 214 36 14 8 12 9 -8 4 -33 -8 -199 -27 -228
-26 -27 1 -42 8 -42 20 0 8 138 26 294 37 80 6 87 8 65 19 -14 8 -30 10 -39 5
-9 -5 -58 -5 -110 -1 -52 5 -85 9 -72 10 12 0 22 6 22 11 0 6 23 10 50 10 30
0 50 4 50 11 0 8 -32 10 -113 5 -177 -9 -200 -10 -234 -2 -18 4 -33 11 -33 16
0 8 490 20 940 23 l274 2 9 -40 c5 -22 6 -62 3 -89 -5 -46 -4 -48 13 -32 25
23 38 20 16 -4 -31 -34 5 -24 42 12 42 40 41 30 -2 -54 -33 -65 -33 -68 -12
-68 16 0 18 -3 9 -12 -7 -7 -12 -20 -12 -29 0 -15 6 -16 43 -8 95 21 191 66
261 122 22 17 36 25 32 19 -13 -22 27 -13 79 17 28 16 67 45 87 65 21 20 35
30 32 21 -4 -8 -2 -15 3 -15 14 0 96 54 112 73 7 9 19 17 25 17 6 0 4 -5 -4
-10 -13 -8 -12 -10 5 -11 14 -1 10 -4 -10 -9 l-30 -8 37 -1 c20 0 39 4 42 12
4 7 8 8 11 2 8 -17 77 -10 87 9 9 16 4 17 -54 15 -35 -1 -73 3 -84 9 -15 9 -4
12 61 13 44 0 113 1 153 2 l72 2 9 -33 c7 -23 6 -40 -5 -60 -7 -15 -11 -34 -9
-43 4 -11 -5 -24 -27 -37 -42 -26 -78 -60 -78 -73 0 -5 71 -44 158 -86 86 -42
160 -78 163 -80 3 -2 33 17 66 42 34 25 64 45 67 45 4 0 39 -20 79 -44 39 -24
140 -81 222 -126 167 -91 185 -103 137 -94 -21 4 -32 3 -32 -5 0 -8 15 -11 43
-10 23 2 51 -3 62 -10 19 -12 18 -12 -5 -7 -14 3 -50 6 -80 7 -30 0 -49 3 -42
6 6 2 12 9 12 15 0 7 -25 8 -72 4 -40 -3 -172 -10 -293 -16 -398 -17 -487 -26
-502 -46 -20 -28 -16 -37 17 -32 17 3 30 1 30 -3 0 -4 -36 -10 -81 -14 -92 -8
-110 -1 -85 36 l15 24 -119 -3 c-105 -3 -121 -5 -130 -22 -9 -17 -6 -19 27
-23 21 -2 8 -4 -29 -4 -63 -1 -67 0 -58 17 6 10 10 20 10 22 0 2 -132 1 -292
-1 -180 -2 -281 -7 -263 -12 24 -7 21 -7 -15 -4 -178 19 -180 19 -180 -2 0
-10 5 -24 12 -31 16 -16 1 -16 -16 0 -7 7 -11 21 -8 32 5 18 0 19 -104 13 -60
-4 -158 -11 -219 -17 -60 -5 -195 -16 -300 -25 -104 -9 -216 -19 -248 -23
l-57 -7 26 -38 26 -38 146 5 c81 3 296 8 479 12 l331 6 17 -26 c14 -21 15 -32
7 -54 -6 -15 -10 -38 -9 -52 1 -15 -3 -24 -10 -23 -7 2 -12 0 -11 -5 2 -13
-14 -42 -24 -42 -5 0 -6 5 -3 10 3 6 1 10 -5 10 -6 0 -9 -8 -6 -18 4 -12 -3
-27 -19 -42 -45 -43 -29 -60 56 -60 27 0 93 -6 147 -14 53 -8 133 -17 178 -21
l80 -6 71 65 71 66 163 -25 c90 -14 209 -32 264 -40 55 -8 128 -18 163 -22 60
-6 62 -7 46 -25 -10 -10 -14 -21 -11 -25 12 -11 101 44 115 71 l13 26 252 -1
252 -1 -96 -14 c-53 -7 -163 -14 -245 -16 -104 -3 -148 -7 -147 -15 1 -6 -4
-14 -13 -17 -9 -3 -12 -2 -8 5 3 6 -3 5 -15 -3 -18 -11 34 -14 336 -18 263 -4
357 -8 360 -17 3 -7 -11 -14 -34 -18 -21 -3 -58 -11 -83 -17 -25 -6 -157 -14
-295 -19 -137 -4 -284 -12 -325 -18 -41 -5 -174 -15 -295 -21 -121 -6 -278
-17 -350 -25 -71 -8 -223 -19 -338 -25 -205 -12 -320 -27 -212 -29 28 -1 106
-10 175 -20 69 -11 162 -23 208 -27 127 -10 118 -21 -33 -41 l-60 -7 50 -7
c28 -4 183 -8 345 -8 162 0 399 -5 525 -11 200 -8 231 -8 241 5 7 10 18 13 29
8 12 -4 16 -3 11 5 -4 7 4 10 25 10 17 -1 35 5 39 12 5 7 16 14 27 15 10 1 29
7 43 14 19 8 -39 10 -245 6 -148 -3 -301 -8 -338 -11 -37 -4 -152 -3 -255 2
-165 7 -179 9 -117 15 39 4 294 12 569 18 459 10 501 12 530 29 17 11 30 24
29 30 -2 6 3 9 10 7 13 -6 200 114 261 167 l39 34 -154 13 c-85 7 -158 16
-162 20 -19 19 27 26 198 28 l180 2 38 33 c20 18 37 35 37 38 0 12 -194 17
-450 11 -125 -3 -153 -6 -115 -11 28 -5 75 -9 105 -10 43 -2 50 -4 30 -10 -14
-4 -50 -8 -81 -9 -90 -2 -179 -13 -179 -23 0 -5 24 -9 53 -8 28 2 59 0 67 -3
8 -3 22 -7 30 -9 8 -3 -94 -2 -225 0 -191 3 -280 10 -435 32 -107 15 -271 37
-365 49 -132 17 -173 26 -183 39 -19 25 -62 92 -62 97 0 13 290 19 1070 19
l894 1 16 30 c8 16 21 35 28 43 14 16 16 36 2 27 -6 -3 -7 1 -3 10 4 11 8 13
13 5 5 -8 11 -6 20 5 7 8 9 15 6 15 -4 0 0 7 8 16 9 8 16 22 16 30 0 8 4 14 8
14 9 0 122 222 122 238 0 4 10 28 22 53 22 46 63 173 79 248 11 54 20 60 70
54 21 -3 49 -3 62 1 30 7 85 59 97 92 13 32 13 103 1 140 -25 75 -22 99 59
544 50 277 52 433 9 565 -17 50 -23 91 -21 144 1 87 -5 101 -61 142 -41 30
-44 31 -124 24 -69 -6 -93 -3 -145 14 -202 67 -384 86 -532 55 -72 -15 -80
-14 -129 3 -38 13 -80 18 -154 17 -77 0 -103 3 -103 13 0 22 -60 82 -95 93
-19 6 -35 15 -35 19 0 11 47 31 70 31 27 0 25 14 -2 32 -52 34 -117 28 -164
-13 -22 -21 -46 -27 -26 -7 12 12 17 88 6 88 -3 0 -15 -12 -27 -26 -23 -29
-90 -63 -125 -64 -38 0 -100 38 -118 73 -9 17 -25 41 -35 52 -16 18 -19 41
-22 162 l-3 141 38 13 c49 16 105 77 115 126 17 81 9 194 -19 278 -30 90 -87
202 -130 257 -36 46 -88 85 -88 66z m69 -90 c101 -160 143 -273 144 -388 0
-99 -13 -147 -51 -183 -42 -40 -73 -47 -205 -47 -110 0 -123 2 -144 22 -30 28
-31 90 -2 138 29 48 34 50 114 50 85 0 141 15 155 40 25 47 4 273 -35 373 -10
25 8 21 24 -5z m-1390 -109 c-11 -46 -24 -127 -28 -179 l-6 -94 -55 3 c-30 1
-57 4 -59 6 -6 7 32 109 70 190 39 81 90 167 97 161 1 -2 -7 -41 -19 -87z
m538 -101 c-40 -41 -68 -101 -66 -144 0 -15 3 -14 11 6 6 14 18 40 26 59 22
49 105 111 149 111 61 0 179 -57 239 -115 57 -56 85 -109 114 -214 l18 -63
-36 6 c-21 3 -73 13 -117 21 -121 23 -307 30 -406 16 -121 -18 -247 -49 -297
-73 -24 -11 -45 -18 -48 -15 -8 7 13 80 28 99 11 14 25 15 108 7 178 -17 200
-13 200 36 0 35 -18 43 -135 55 -61 7 -112 14 -114 16 -9 8 92 114 136 143 25
17 42 31 37 31 -20 0 -118 -69 -170 -120 -30 -29 -57 -50 -61 -46 -12 12 110
120 174 154 59 31 183 69 230 71 20 1 17 -4 -20 -41z m-1461 -30 c30 -28 56
-49 59 -46 3 3 -9 24 -26 47 l-30 43 38 -6 c21 -3 43 -5 49 -6 5 0 30 -28 53
-62 l44 -61 -69 6 c-38 4 -87 7 -109 7 -37 0 -44 5 -81 53 -60 78 -60 77 -19
77 30 0 46 -9 91 -52z m274 7 c18 -6 97 -103 89 -108 -2 -2 -32 -1 -67 1 l-63
4 -39 53 c-22 30 -40 58 -40 63 0 9 79 0 120 -13z m30 -145 c63 -5 241 -18
395 -30 384 -27 645 -53 645 -62 0 -11 -21 -10 -200 7 -85 8 -254 21 -375 30
-121 9 -314 25 -429 36 -115 10 -236 19 -268 19 -37 0 -58 4 -58 11 0 12 28
11 290 -11z m-41 -56 c3 -2 -6 -15 -19 -29 -31 -33 -18 -32 33 4 32 23 49 28
70 24 l29 -6 -48 -48 -48 -49 -84 0 -84 0 31 32 c30 31 44 60 19 41 -7 -5 -31
-24 -53 -40 -35 -27 -45 -30 -79 -25 l-39 7 55 50 55 51 79 -4 c43 -2 81 -6
83 -8z m687 -53 l21 -1 -23 -67 c-13 -38 -24 -80 -24 -95 0 -24 -4 -28 -30
-28 -86 0 -140 58 -140 150 l0 55 88 -7 c48 -3 96 -7 108 -7z m727 -82 c157
-23 253 -40 267 -49 9 -6 15 -28 16 -60 l2 -52 -62 6 c-33 3 -104 10 -157 16
-107 12 -325 7 -422 -10 -63 -11 -172 -41 -240 -66 -20 -8 -39 -14 -40 -14 -2
0 -4 21 -6 47 -1 26 -4 49 -7 52 -2 2 -15 -6 -29 -19 -20 -19 -25 -33 -25 -72
0 -26 -4 -48 -9 -48 -11 0 -22 47 -18 72 21 127 441 240 730 197z m117 -195
c103 -15 178 -32 192 -43 4 -3 23 -87 42 -186 20 -99 38 -189 41 -200 3 -17 0
-16 -19 6 -25 28 -60 51 -68 44 -2 -3 -1 -28 3 -57 14 -102 10 -180 -11 -215
-11 -18 -21 -33 -24 -33 -2 0 -21 8 -42 17 -29 12 -80 18 -192 22 -83 4 -152
2 -152 -2 0 -5 -15 -7 -34 -6 -24 2 -42 -4 -65 -24 -71 -60 -131 -20 -131 87
0 67 14 196 31 291 15 82 2 134 -36 156 -42 24 -75 32 -75 20 0 -6 11 -13 25
-17 34 -8 55 -41 55 -83 0 -30 -2 -33 -12 -18 -20 25 -102 62 -220 99 -60 18
-108 36 -108 39 0 8 78 39 170 68 189 60 379 71 630 35z m322 -179 c6 -14 3
-12 -11 5 -11 14 -21 21 -21 15 -1 -5 -5 -1 -10 10 -8 20 -9 20 -9 -1 -1 -12
3 -34 8 -50 5 -16 17 -56 26 -89 10 -33 20 -64 23 -70 7 -12 4 -214 -4 -240
-9 -28 -26 -48 -33 -37 -10 15 -51 -6 -50 -25 0 -16 2 -16 10 2 l9 20 -3 -20
c-1 -11 -8 -20 -15 -20 -6 0 -12 -3 -12 -7 0 -31 1 -32 10 -18 8 13 10 12 10
-2 0 -22 -18 -24 -26 -3 -5 11 -11 12 -25 5 -16 -9 -15 -5 6 26 33 49 38 71
33 155 -3 61 -2 68 10 52 7 -10 20 -44 29 -76 22 -76 38 -60 37 36 -1 59 -34
271 -61 387 l-6 25 33 -30 c17 -16 36 -39 42 -50z m236 -133 c2 -49 -2 -74
-18 -107 -25 -51 -66 -72 -97 -50 -17 13 -17 14 2 21 40 14 75 56 75 90 0 37
-8 64 -20 64 -4 0 -6 -11 -5 -25 3 -27 -12 -34 -21 -10 -4 8 -15 15 -25 15
-26 0 -24 8 12 42 23 22 38 28 62 26 32 -3 32 -3 35 -66z m-1273 36 c19 -9 24
-16 19 -32 -6 -19 -5 -19 10 -7 14 12 24 10 73 -14 31 -15 77 -30 102 -34 l46
-8 -37 -7 c-45 -10 -50 -26 -8 -26 25 0 30 -4 30 -25 0 -25 -25 -95 -33 -95
-17 0 -67 62 -67 83 0 13 -7 31 -17 38 -15 13 -15 12 -4 -8 17 -32 4 -76 -21
-70 -12 4 -18 1 -15 -6 2 -7 17 -12 34 -12 31 -1 63 -19 63 -37 0 -5 -21 -18
-46 -29 -42 -19 -47 -19 -70 -4 -14 9 -32 31 -39 48 -10 21 -14 26 -15 13 0
-13 -5 -17 -20 -13 -25 7 -27 -10 -1 -18 10 -3 26 -14 36 -25 18 -20 18 -20
-16 -14 -38 8 -89 31 -90 42 0 4 -2 15 -4 24 -4 23 20 42 46 35 17 -4 19 -3
10 6 -20 20 -13 40 13 33 17 -4 26 -1 30 11 4 9 9 13 13 10 3 -4 -2 -19 -11
-34 l-17 -28 20 24 c24 26 26 43 10 74 l-12 21 -8 -22 c-5 -13 -17 -22 -29
-22 -20 0 -25 10 -20 40 1 11 -3 10 -20 -5 -18 -16 -21 -28 -17 -61 3 -29 -1
-47 -14 -63 l-18 -22 -7 36 c-10 53 1 134 20 153 15 15 16 14 17 -8 l0 -25 10
25 c10 24 11 24 25 6 16 -23 19 -13 3 15 -7 15 -7 24 2 35 14 17 12 17 44 2z
m1104 -161 c39 -142 92 -224 174 -266 l39 -19 -45 -7 c-25 -4 -50 -4 -56 0
-18 10 -12 -11 7 -28 29 -27 92 -49 144 -50 26 -1 48 -4 48 -5 0 -17 -96 -75
-113 -69 -7 2 3 11 21 21 34 18 35 36 1 36 -43 0 -149 68 -149 96 0 7 15 14
32 16 l33 3 -24 22 c-13 12 -29 19 -35 16 -6 -3 -8 -3 -4 1 3 4 -7 29 -23 54
-16 25 -29 51 -29 56 0 6 -6 23 -14 38 -8 14 -17 50 -21 80 -6 39 -10 48 -15
33 -5 -13 -7 -2 -7 30 0 28 -3 64 -7 80 -9 41 17 -43 43 -138z m247 -26 c53
-39 90 -79 114 -126 l21 -40 -6 40 c-4 22 -17 56 -30 76 l-24 36 27 13 c98 45
270 5 397 -93 61 -47 132 -134 167 -204 17 -35 32 -62 34 -60 2 2 -1 21 -7 43
-21 73 -67 149 -123 203 -32 29 -55 55 -52 58 2 3 35 5 73 5 53 1 91 -7 173
-35 112 -38 230 -58 230 -38 0 6 -10 11 -23 11 -13 0 -46 8 -73 17 l-49 17 40
9 c22 5 101 6 175 4 117 -5 151 -10 260 -42 115 -34 132 -37 207 -31 81 7 81
7 117 -25 36 -31 37 -33 35 -103 -2 -50 4 -88 19 -128 11 -32 19 -58 17 -58
-2 0 -19 9 -38 20 -46 27 -86 38 -176 50 -66 9 -78 14 -117 50 -24 22 -46 40
-48 40 -3 0 6 -16 19 -36 14 -20 25 -40 25 -44 0 -4 -24 -10 -52 -13 -74 -8
-120 -23 -163 -53 -21 -14 -39 -24 -40 -22 -3 3 36 63 84 128 l25 35 -29 -24
c-17 -14 -47 -43 -68 -65 l-38 -41 7 30 c4 17 14 44 22 60 l15 30 -23 -20
c-34 -31 -48 -66 -54 -133 -6 -78 -9 -83 -47 -70 -30 10 -115 3 -123 -11 -3
-4 19 -7 49 -8 79 -2 95 -14 95 -71 1 -26 5 -105 10 -177 8 -127 8 -131 -14
-160 -26 -34 -93 -70 -147 -79 -36 -6 -37 -5 -43 29 -10 51 3 104 36 153 36
55 14 50 -29 -6 -36 -47 -52 -128 -34 -174 6 -16 6 -28 1 -28 -17 0 -49 52
-70 115 -14 43 -32 73 -52 90 -37 32 -48 26 -19 -11 11 -15 21 -34 21 -43 0
-9 11 -42 24 -74 l24 -58 -46 7 c-57 8 -120 35 -185 76 l-48 31 57 56 c69 68
136 169 159 238 26 78 13 85 -22 12 -61 -128 -157 -238 -273 -311 -59 -37
-143 -78 -160 -78 -5 0 -10 -5 -10 -10 0 -11 26 -7 88 12 18 5 36 7 40 3 14
-14 2 -142 -18 -199 -45 -131 -113 -206 -243 -266 -70 -32 -221 -70 -233 -57
-2 1 14 23 35 47 105 126 168 326 159 511 -3 55 -4 99 -2 99 2 0 13 -33 25
-72 13 -40 26 -77 30 -81 11 -14 41 74 46 135 6 63 -17 178 -47 238 -10 19
-31 47 -47 63 l-29 27 48 50 c49 51 67 101 29 80 -40 -21 -33 -9 11 20 33 22
48 40 56 69 15 47 15 71 2 71 -5 0 -10 -9 -10 -20 0 -21 -75 -110 -93 -110 -6
0 -1 10 10 23 22 24 43 60 43 75 0 5 -20 4 -48 -1 -26 -6 -65 -7 -87 -3 l-39
8 41 18 c23 10 46 28 53 39 6 12 9 21 8 21 -2 1 -27 2 -55 4 -66 4 -112 37
-153 109 l-30 52 28 6 c38 8 80 37 87 60 9 26 25 24 71 -10z m-1505 -28 c7
-18 6 -42 -2 -78 l-12 -53 -37 5 c-38 5 -120 -27 -120 -48 0 -6 6 -6 18 -1 28
15 82 22 108 16 18 -5 24 -13 23 -33 -1 -55 -9 -62 -86 -66 -71 -3 -136 -27
-162 -59 -18 -21 -7 -20 57 4 29 11 74 20 100 20 l47 -1 -25 -20 c-20 -17 -35
-20 -77 -17 -34 3 -53 1 -53 -6 0 -20 39 -75 66 -92 24 -16 25 -19 8 -25 -11
-4 -38 -8 -61 -8 -48 -1 -53 -12 -28 -61 18 -34 14 -36 -20 -14 -37 24 -30 -1
8 -30 l34 -26 -39 -41 c-21 -22 -41 -54 -45 -70 -3 -16 -9 -29 -14 -29 -5 0
-26 22 -46 49 -49 64 -63 65 -26 3 34 -59 73 -106 94 -114 10 -4 18 -23 21
-50 3 -23 9 -50 12 -59 5 -12 -4 -21 -41 -36 -70 -30 -121 -36 -208 -24 -94
13 -158 46 -219 111 -106 114 -129 245 -60 338 14 17 21 32 15 32 -5 0 -13 -4
-16 -10 -3 -5 -17 2 -30 18 -28 33 -38 27 -26 -16 11 -37 11 -37 -33 -18 -18
7 -65 19 -104 26 -40 7 -72 16 -72 19 0 3 9 17 20 31 11 14 20 29 20 33 0 15
-58 -26 -68 -48 -8 -17 -24 -23 -83 -33 -76 -11 -160 -42 -191 -70 -15 -12
-18 -13 -18 -1 1 26 27 125 40 149 7 13 12 42 12 65 -1 35 4 47 34 76 34 33
36 33 113 31 84 -2 98 2 202 60 77 44 182 65 273 54 32 -4 55 -10 52 -13 -3
-3 -34 -14 -68 -24 l-63 -18 60 0 c51 -1 74 6 155 44 101 48 186 71 227 60
l25 -6 -37 -41 c-41 -45 -90 -143 -99 -200 -8 -47 10 -51 19 -5 12 57 66 145
125 204 64 65 144 110 228 128 31 7 58 13 60 14 1 1 7 -11 13 -26z m379 -118
l0 -55 -42 0 c-41 0 -41 0 -23 20 10 11 16 22 13 25 -7 7 -50 -16 -72 -38 -22
-21 -55 -22 -70 -1 -11 14 -86 37 -95 29 -9 -10 23 -35 45 -35 12 0 26 -4 29
-10 3 -5 -2 -10 -12 -10 -10 0 -33 -9 -51 -20 -18 -11 -34 -20 -36 -20 -3 0
-14 16 -26 35 -18 29 -21 44 -15 81 3 25 9 44 13 42 111 -59 238 -63 304 -8
12 11 26 19 31 20 4 0 7 -25 7 -55z m588 -90 c48 -20 63 -45 102 -180 18 -60
43 -127 56 -147 32 -50 22 -49 -15 2 -15 21 -31 37 -35 35 -3 -3 -4 -2 -2 1 3
3 0 18 -6 33 -5 14 -11 33 -13 41 -13 63 -27 100 -37 94 -8 -5 -9 -1 -5 10 8
21 -10 59 -24 51 -5 -4 -8 -1 -7 5 6 26 -50 53 -121 58 -39 2 -71 1 -71 -4 0
-4 8 -16 18 -27 17 -19 16 -19 -5 -6 -13 8 -23 16 -23 19 0 6 -19 7 -144 9
-85 1 -60 14 42 22 117 9 244 2 290 -16z m-924 -74 c-4 -9 -15 -38 -25 -66
-11 -29 -18 -41 -19 -28 0 12 -3 30 -6 40 -4 14 -4 15 4 4 8 -11 11 -9 17 8 4
13 4 25 1 28 -3 3 -1 15 5 27 10 20 10 20 -5 2 -9 -11 -16 -24 -16 -29 0 -17
-78 -87 -97 -88 -15 0 -14 -2 4 -9 12 -5 36 -7 53 -5 18 2 33 -1 36 -8 5 -15
-30 -121 -51 -154 -16 -24 -64 -56 -50 -33 5 8 3 11 -6 8 -8 -3 -13 -11 -11
-18 1 -6 -3 -10 -10 -7 -14 5 -72 -34 -100 -68 -10 -11 -17 -15 -18 -9 0 16
85 93 118 105 l27 11 -35 14 c-37 16 -70 42 -70 56 0 4 17 8 38 8 39 0 132 49
132 70 0 5 -18 10 -39 10 -27 0 -49 7 -67 23 l-27 24 38 1 c46 2 96 38 127 92
21 36 24 38 41 23 11 -10 15 -23 11 -32z m714 -36 c41 -25 79 -102 91 -186 l8
-63 -23 29 -22 28 -7 -49 c-10 -73 -15 -84 -29 -54 -15 35 -45 75 -50 69 -3
-3 -12 -20 -20 -39 -10 -24 -16 -30 -20 -20 -15 44 -26 99 -26 132 0 32 3 37
30 43 52 11 33 25 -35 25 -84 0 -255 -19 -275 -31 -13 -7 -12 -8 3 -9 13 0 17
-5 13 -17 -3 -10 -12 -45 -20 -78 -17 -73 -40 -128 -49 -118 -4 3 -7 22 -8 42
0 20 -4 44 -8 54 -6 17 -8 17 -31 -1 l-25 -20 0 72 -1 71 46 -4 c49 -3 49 2
-2 27 -23 12 -34 25 -36 43 -4 33 0 34 135 53 60 9 119 17 133 20 14 2 63 3
110 2 63 -1 93 -7 118 -21z m2207 -75 c-22 -4 -32 -8 -22 -9 10 0 17 -9 17
-20 0 -11 2 -25 5 -33 4 -10 -16 -13 -92 -14 -91 -1 -103 -3 -168 -36 -38 -20
-79 -45 -89 -57 -27 -29 -33 -26 -28 14 3 27 15 44 51 73 85 69 151 91 276 90
68 -1 80 -3 50 -8z m-2522 -80 c-4 -17 0 -20 23 -20 20 0 25 -3 15 -9 -7 -5
-21 -7 -31 -4 -14 4 -18 -5 -23 -64 -4 -37 -7 -93 -7 -123 0 -80 -8 -100 -35
-98 -13 1 -21 6 -19 10 3 4 0 16 -5 25 -10 17 -10 17 -11 1 0 -10 -7 -18 -15
-18 -8 0 -15 4 -15 9 0 5 -6 16 -13 23 -7 7 -18 29 -23 48 l-11 35 -13 -43
c-7 -23 -15 -40 -18 -38 -5 6 27 107 38 119 4 5 10 -9 13 -30 10 -60 57 -113
57 -64 0 11 5 23 10 26 6 4 10 -8 10 -29 0 -19 4 -37 9 -40 4 -3 11 36 14 87
8 106 34 217 52 217 2 0 1 -9 -2 -20z m-1483 -38 c9 -4 15 -21 15 -43 l0 -37
-85 -5 c-91 -5 -173 -31 -235 -72 -44 -30 -45 -31 -45 -2 0 39 37 85 91 113
77 38 219 64 259 46z m365 -427 c115 -88 350 -87 455 2 l30 25 0 -69 c1 -129
40 -254 105 -332 15 -17 30 -31 33 -31 4 0 6 33 4 72 -2 52 0 69 7 58 6 -8 11
-25 11 -36 0 -12 19 -59 42 -105 37 -75 58 -100 185 -225 78 -78 143 -146 143
-153 0 -8 -72 -11 -258 -11 -143 0 -347 -3 -454 -7 l-195 -6 -18 54 c-21 65
-39 87 -85 107 -75 31 -87 47 -100 123 -19 114 -8 303 25 442 16 64 31 117 33
117 2 0 18 -11 37 -25z m2684 -22 c31 -21 83 -47 116 -59 l60 -22 -1 -55 c-1
-37 -9 -68 -25 -96 -23 -41 -24 -42 -32 -19 -26 72 -50 105 -93 131 -24 15
-47 27 -50 27 -3 0 15 -23 40 -51 32 -35 50 -68 62 -107 9 -31 29 -93 44 -136
27 -73 28 -82 14 -107 -24 -47 -135 -159 -208 -210 -66 -47 -72 -49 -137 -49
-62 0 -70 2 -99 31 -17 18 -29 37 -26 44 7 20 -31 92 -58 110 -15 10 -33 14
-43 11 -15 -6 -14 -9 7 -19 13 -7 32 -26 42 -44 27 -45 15 -79 -39 -113 -47
-30 -76 -30 -140 3 -42 22 -51 21 -55 -5 -4 -30 -38 -35 -67 -11 -16 13 -25
33 -28 66 -6 48 -16 60 -27 31 -6 -16 -8 -16 -25 0 -26 24 -31 10 -10 -32 11
-20 19 -47 19 -59 0 -22 -4 -23 -72 -24 -40 0 -84 -3 -98 -5 -21 -4 -16 3 28
42 29 25 73 68 99 95 48 51 67 62 56 32 -7 -17 -5 -17 17 -2 14 9 60 19 102
23 82 7 181 37 264 79 157 79 256 251 255 441 0 54 4 72 17 82 25 19 29 18 91
-23z m592 -128 c6 -27 13 -105 16 -171 l6 -122 -44 -7 c-66 -11 -189 -59 -214
-83 l-23 -22 -26 44 c-36 62 -69 86 -109 79 -30 -5 -33 -3 -49 42 -18 46 -18
47 6 78 36 48 56 104 56 158 l0 48 38 -6 c20 -3 44 -9 52 -13 9 -5 26 -2 40 6
14 7 37 13 51 14 30 0 141 53 160 77 12 14 15 10 21 -28 5 -24 13 -66 19 -94z
m321 -227 c31 -7 45 -14 32 -16 -17 -2 -20 -8 -16 -34 5 -30 4 -31 -24 -23
-16 4 -81 8 -144 10 -113 4 -115 4 -115 27 0 17 8 26 35 35 46 16 165 16 232
1z m72 -127 c44 -12 96 -29 115 -39 35 -17 36 -18 39 -85 3 -63 1 -69 -27 -97
-24 -24 -38 -30 -74 -30 -24 0 -58 3 -74 6 -25 5 -29 10 -25 30 2 13 1 36 -3
51 l-7 28 -13 -35 -13 -35 -7 33 c-12 52 -25 37 -25 -28 0 -33 -8 -78 -17
-101 -14 -36 -15 -50 -5 -99 19 -91 16 -119 -13 -126 -31 -8 -31 -7 -40 29 -9
34 16 38 39 5 11 -16 16 -18 16 -7 0 27 -26 52 -48 47 -35 -9 -57 66 -54 182
2 52 1 92 -2 89 -4 -3 -15 -39 -25 -79 l-20 -73 25 -77 c28 -87 23 -122 -22
-142 -41 -19 -56 0 -91 113 -30 95 -32 111 -27 190 4 56 3 88 -4 93 -11 6 -12
1 -32 -109 -10 -56 -9 -66 19 -149 16 -48 27 -96 24 -105 -17 -46 -67 -67 -92
-37 -6 7 -27 64 -47 126 -36 113 -36 114 -20 163 17 52 21 113 9 143 -9 23
-46 -134 -47 -196 0 -25 7 -66 16 -92 15 -44 15 -47 0 -39 -10 6 -23 6 -34 0
-26 -14 -22 -27 6 -22 26 5 70 -29 63 -50 -2 -7 -19 -13 -38 -15 l-34 -2 -49
105 -49 105 27 93 c15 50 32 106 37 124 15 49 32 58 79 43 38 -12 42 -12 65
10 22 21 29 22 60 13 41 -13 44 -9 13 18 -30 24 -57 24 -83 -1 -20 -19 -55
-19 -55 0 0 6 85 34 165 54 11 3 88 3 170 2 114 -3 169 -9 229 -25z m-3860
-96 c33 -9 89 -34 125 -56 35 -21 71 -39 78 -39 12 0 37 -49 49 -97 6 -22 4
-23 -65 -23 -39 0 -71 2 -71 5 0 4 7 19 15 35 21 40 4 38 -34 -5 -26 -30 -37
-35 -75 -35 -44 0 -45 0 -48 37 -4 47 -26 55 -30 11 l-3 -33 -20 35 -20 35 -3
-53 -3 -54 -42 7 c-59 10 -77 22 -77 50 0 13 -4 27 -10 30 -6 3 -10 -5 -10
-19 0 -14 -3 -27 -7 -29 -5 -2 -36 0 -70 6 -48 8 -63 15 -63 27 0 42 -15 24
-32 -37 -22 -87 -22 -123 1 -212 l19 -73 -20 22 c-22 23 -68 25 -76 2 -3 -9 3
-11 22 -6 17 4 33 0 50 -13 l25 -20 -36 -33 c-32 -31 -36 -32 -48 -17 -7 10
-25 54 -40 100 -25 74 -26 90 -20 167 4 47 8 98 10 113 4 57 -14 34 -35 -46
-21 -79 -23 -152 -5 -198 4 -12 -1 -18 -19 -23 -33 -8 -35 -35 -3 -29 28 6 57
-19 57 -48 0 -17 -6 -20 -37 -17 -37 3 -39 5 -59 63 -11 33 -28 74 -37 92 -22
42 -21 90 2 155 11 29 24 71 30 94 15 56 43 81 76 66 19 -9 32 -8 59 3 20 8
48 15 63 15 18 0 24 3 17 10 -12 12 -50 15 -89 6 -27 -7 -28 -6 -10 5 11 7 52
21 90 31 89 22 337 18 429 -7z m-232 -291 c53 -66 69 -70 34 -8 -14 26 -26 47
-26 49 0 1 22 -3 49 -8 47 -10 49 -12 84 -83 l36 -72 -52 13 c-29 7 -80 18
-114 25 l-63 13 -35 62 c-19 35 -35 68 -35 73 0 6 14 6 39 0 30 -8 50 -23 83
-64z m3355 62 c-2 -7 -52 -13 -143 -16 l-139 -4 145 -6 145 -6 -182 -2 c-272
-3 -234 -22 75 -39 122 -6 122 -6 136 -35 8 -15 10 -28 5 -28 -5 0 -9 5 -9 10
0 6 -5 10 -11 10 -5 0 -8 -4 -5 -9 6 -9 -49 -25 -126 -36 -27 -4 -48 -11 -48
-16 0 -8 48 -12 180 -13 46 -1 55 -4 58 -21 2 -11 13 -28 23 -38 10 -10 19
-22 19 -26 0 -8 36 -25 75 -35 11 -3 -11 -3 -50 0 -48 3 -63 1 -49 -5 25 -11
246 -31 343 -31 72 0 88 -11 76 -50 -8 -26 -42 -29 -245 -21 -148 5 -428 0
-357 -7 9 -1 17 -6 17 -11 0 -8 81 -13 409 -26 68 -2 125 -6 127 -8 8 -8 -23
-74 -44 -94 -22 -22 -31 -23 -173 -23 -126 0 -149 -2 -149 -15 0 -8 -4 -15 -9
-15 -17 0 2 45 32 77 35 37 29 42 -17 13 l-32 -19 -95 58 c-109 67 -151 91
-314 178 -167 90 -159 83 -189 163 -29 80 -30 84 -16 75 6 -3 10 -1 10 5 0 7
-7 9 -16 6 -15 -6 -62 15 -127 55 l-32 19 353 -1 c259 -1 352 -4 349 -13z
m-3119 -78 c61 -21 65 -25 94 -81 16 -33 27 -61 25 -63 -3 -3 -33 2 -68 11
l-64 16 -32 64 c-18 35 -33 67 -33 70 0 9 13 6 78 -17z m2484 -109 c73 -39
156 -83 183 -99 28 -15 91 -49 140 -76 161 -85 370 -213 362 -220 -3 -3 -29 8
-58 24 -170 92 -423 235 -482 270 -37 23 -71 42 -76 42 -5 0 -14 7 -21 15 -7
9 -15 14 -17 11 -2 -2 -36 14 -75 35 -39 21 -77 39 -84 39 -8 0 -14 7 -14 15
0 8 2 15 4 15 2 0 64 -32 138 -71z m-101 -14 c50 -25 87 -50 84 -56 -4 -5 -25
-21 -47 -35 -36 -23 -43 -24 -72 -13 -49 19 -54 28 -26 49 36 27 19 35 -28 12
-37 -18 -41 -18 -71 -2 l-32 16 47 37 c26 20 49 37 51 37 2 0 44 -20 94 -45z
m-2411 -31 c74 -18 270 -63 435 -99 398 -87 465 -104 465 -123 0 -11 -3 -12
-13 -3 -8 6 -17 8 -20 4 -4 -3 -7 -2 -7 3 0 5 -10 9 -22 10 -28 1 -204 38
-308 64 -274 70 -698 170 -732 173 -10 1 -18 5 -18 10 0 12 57 2 220 -39z
m-42 -50 l83 -17 -28 -29 -28 -29 52 24 c48 22 103 26 103 8 0 -3 -25 -26 -55
-49 l-55 -43 -80 13 c-44 7 -80 15 -80 18 0 4 14 16 30 28 47 35 35 46 -17 16
-27 -14 -52 -29 -56 -33 -8 -8 -87 9 -87 19 0 6 121 90 130 90 3 0 42 -7 88
-16z m3332 -367 c102 1 181 0 175 -2 -5 -2 -52 -11 -103 -19 -106 -18 -191
-20 -352 -6 -63 6 -189 13 -280 16 -410 14 -431 22 -40 16 228 -4 498 -6 600
-5z m-2098 -103 c28 -30 53 -52 56 -49 3 3 -9 26 -27 51 l-32 46 48 -7 c26 -4
51 -9 54 -11 6 -3 79 -122 79 -127 0 -2 -50 5 -111 13 l-112 16 -43 59 c-24
33 -44 64 -44 68 0 5 18 6 40 2 32 -5 52 -19 92 -61z m245 6 c49 -11 55 -16
88 -70 19 -32 35 -60 35 -62 0 -2 -30 0 -66 6 -62 9 -69 13 -96 50 -16 23 -36
54 -44 69 -17 31 -25 30 83 7z m-32 -150 c72 -11 238 -33 370 -50 343 -44 529
-72 540 -81 13 -12 -23 -11 -145 6 -58 8 -139 19 -180 25 -41 5 -165 23 -275
39 -110 17 -258 38 -330 46 -181 22 -195 25 -195 36 0 10 10 9 215 -21z m3
-57 l53 -6 -32 -33 c-18 -19 -28 -34 -22 -34 7 0 15 5 18 10 14 23 82 49 110
42 l27 -8 -56 -48 -56 -47 -81 7 -80 7 30 31 c17 18 31 35 31 39 0 9 -65 -30
-80 -49 -13 -14 -62 -18 -92 -6 -14 6 -6 16 40 55 61 51 76 54 190 40z"/>
<path d="M2579 3995 c-65 -16 -215 -79 -284 -119 -26 -16 -55 -41 -64 -57 -9
-16 -19 -29 -23 -29 -18 0 -6 66 18 107 23 41 24 44 6 34 -66 -35 -84 -135
-36 -198 14 -18 34 -33 45 -33 16 0 18 -4 12 -27 -39 -139 71 -266 215 -249
71 8 129 35 169 77 33 35 63 104 63 146 0 56 -51 134 -113 173 l-28 18 55 31
c51 30 106 82 106 101 0 18 -33 40 -58 39 -15 0 -52 -7 -83 -14z m-69 -200
c-8 -9 -9 -26 -4 -47 l7 -33 9 33 c11 40 31 49 64 31 l25 -13 -25 -19 c-14
-10 -26 -25 -26 -32 0 -8 -10 -15 -22 -17 -12 -2 -24 -10 -26 -18 -5 -13 -3
-13 12 -1 15 12 19 12 34 -2 13 -13 14 -19 4 -29 -7 -7 -12 -17 -12 -22 1 -6
9 -1 20 12 13 16 18 32 14 52 -5 22 -2 31 17 40 34 19 59 -17 59 -82 0 -45 -2
-49 -20 -43 -11 4 -29 0 -41 -9 -12 -8 -29 -12 -38 -9 -9 4 -12 2 -8 -3 5 -5
25 -9 45 -9 43 0 48 -12 19 -47 -19 -25 -27 -27 -61 -22 -31 6 -41 13 -52 40
-17 41 -23 43 -16 7 4 -22 2 -25 -13 -19 -15 5 -16 4 -5 -9 7 -8 18 -15 24
-15 7 0 21 -7 32 -15 16 -13 17 -16 4 -25 -50 -33 -129 10 -131 71 -1 24 -3
27 -6 12 -5 -27 -11 -28 -35 -6 -33 29 -19 -6 17 -44 19 -20 33 -38 31 -40 -2
-2 -19 2 -38 10 -63 26 -96 92 -65 127 10 12 9 12 -6 0 -17 -13 -18 -11 -15
26 2 33 6 38 23 36 16 -3 18 -1 8 9 -20 20 -16 27 27 49 48 24 51 25 43 3 -4
-11 -3 -14 5 -9 7 4 12 13 12 19 0 13 23 30 80 58 43 22 45 23 30 4z"/>
<path d="M1816 4770 c-28 -88 -63 -286 -53 -296 3 -4 13 -4 21 -1 16 6 22 24
62 200 25 110 26 120 12 150 l-15 32 -27 -85z"/>
<path d="M1153 4243 l-62 -66 -170 7 c-94 3 -206 9 -248 13 l-78 6 19 -22 c29
-32 73 -40 276 -47 219 -8 238 -4 318 68 l55 51 93 -7 94 -7 0 24 c0 27 -10
29 -170 41 l-65 5 -62 -66z"/>
<path d="M4987 3338 c2 -59 10 -113 24 -156 17 -53 22 -100 26 -222 4 -150 3
-163 -41 -405 -25 -137 -51 -275 -57 -306 -6 -31 -8 -82 -5 -115 17 -173 18
-194 6 -228 -26 -79 -103 -136 -185 -136 -39 0 -45 -3 -45 -20 0 -55 -95 -310
-173 -464 -278 -548 -793 -922 -1452 -1055 -215 -43 -336 -53 -585 -48 -201 4
-253 9 -360 31 -235 49 -450 125 -611 216 -37 21 -77 41 -88 45 -12 3 -21 11
-21 16 0 5 -5 9 -10 9 -18 0 -139 87 -248 176 -107 89 -240 231 -325 346 -64
88 -73 88 -11 1 433 -614 1147 -948 1917 -895 590 40 1070 234 1439 580 249
235 435 540 547 900 33 106 32 104 102 116 53 9 113 57 139 111 21 44 22 55
15 154 -11 154 -10 169 46 476 47 252 52 295 52 425 0 125 -3 160 -26 250 -15
58 -27 129 -27 158 0 48 -21 115 -39 126 -3 2 -5 -36 -4 -86z"/>
<path d="M180 1410 c0 -4 13 -19 29 -33 31 -25 125 -51 322 -86 59 -11 117
-24 129 -31 30 -16 33 -9 11 26 -21 34 -50 43 -223 68 -54 8 -106 20 -117 25
-11 6 -37 11 -58 11 -21 0 -50 7 -65 14 -16 8 -28 11 -28 6z"/>
<path d="M3037 996 c9 -5 39 -6 68 -2 28 3 54 4 57 1 2 -3 56 -8 119 -11 63
-3 134 -7 159 -8 144 -8 564 -21 676 -21 112 0 133 3 148 18 10 10 16 21 13
24 -4 3 -287 6 -631 7 -360 0 -618 -3 -609 -8z"/>
<path d="M1054 869 c-1 -3 11 -22 27 -42 l30 -37 82 0 c122 0 560 31 577 41
10 5 -2 8 -34 9 -39 0 -47 3 -42 15 3 8 1 15 -4 15 -6 0 -10 -4 -10 -10 0 -5
-19 -9 -42 -9 l-43 2 35 7 c27 6 18 8 -42 9 -46 0 -78 -3 -78 -9 0 -5 -16 -10
-35 -10 -19 0 -35 4 -35 10 0 10 -379 19 -386 9z"/>
<path d="M2026 299 c2 -4 28 -10 57 -15 79 -11 88 -12 137 -24 25 -6 55 -9 68
-7 12 2 22 0 22 -5 0 -5 21 -8 48 -7 26 0 125 1 221 0 175 -2 292 6 301 19 9
13 53 23 46 11 -4 -6 -1 -11 6 -11 24 1 139 28 145 34 4 3 -212 7 -478 8 -266
1 -505 2 -531 3 -26 0 -45 -2 -42 -6z"/>
</g>
</svg>
