<?xml version="1.0" standalone="no"?>
<!DOCTYPE svg PUBLIC "-//W3C//DTD SVG 20010904//EN"
 "http://www.w3.org/TR/2001/REC-SVG-20010904/DTD/svg10.dtd">
<svg version="1.0" xmlns="http://www.w3.org/2000/svg"
 width="512.000000pt" height="512.000000pt" viewBox="0 0 512.000000 512.000000"
 preserveAspectRatio="xMidYMid meet">
<metadata>
Created by potrace 1.16, written by Peter Selinger 2001-2019
</metadata>
<g transform="translate(0.000000,512.000000) scale(0.100000,-0.100000)"
fill="#000000" stroke="none">
<path d="M3644 4844 c0 -29 -6 -40 -34 -61 -54 -41 -264 -252 -258 -259 3 -3
23 3 45 14 21 11 58 25 82 32 53 14 185 128 201 174 15 42 12 88 -6 114 -22
31 -30 27 -30 -14z"/>
<path d="M3513 4830 c-87 -23 -133 -46 -243 -121 -145 -99 -224 -185 -255
-279 -24 -71 -6 -108 73 -156 2 -1 -7 -18 -18 -38 -15 -25 -20 -44 -15 -65 5
-24 -1 -38 -33 -81 -58 -76 -92 -153 -107 -235 -11 -66 -67 -184 -86 -185 -4
0 -10 12 -13 28 -30 119 -173 395 -258 494 l-23 28 -130 -36 c-388 -105 -742
-232 -1095 -392 -168 -76 -232 -113 -247 -142 -33 -65 3 -331 72 -544 46 -141
144 -314 216 -383 l34 -32 80 14 c44 8 127 28 185 45 125 36 124 36 161 9 l29
-20 0 -128 c0 -186 25 -469 60 -683 7 -46 5 -67 -12 -119 -24 -75 -35 -271
-20 -337 11 -49 20 -48 -96 -9 -54 18 -67 27 -82 57 -10 20 -37 59 -59 87 -66
83 -168 111 -290 78 -30 -8 -57 -12 -61 -10 -15 9 -9 125 10 186 44 134 60
222 59 324 0 202 -54 375 -174 564 -99 158 -232 241 -405 257 -152 14 -292
-36 -399 -143 -109 -109 -153 -218 -152 -375 1 -116 17 -171 104 -348 59 -120
66 -130 182 -245 130 -131 171 -157 336 -221 52 -19 113 -47 136 -60 23 -13
49 -21 57 -18 11 4 16 1 16 -10 0 -9 -4 -16 -10 -16 -5 0 -25 -13 -43 -30 -45
-40 -71 -107 -65 -173 4 -47 14 -74 61 -162 8 -16 21 -49 27 -73 8 -32 20 -48
43 -62 25 -15 36 -31 45 -65 9 -35 20 -51 45 -65 18 -11 41 -36 50 -55 12 -26
30 -42 62 -56 55 -24 173 -36 202 -21 34 18 47 -6 28 -52 -29 -68 12 -146 86
-166 61 -17 122 16 134 71 6 24 10 28 30 23 12 -3 37 1 53 10 61 32 77 86 46
153 -22 46 -59 68 -113 68 -49 0 -62 13 -31 33 19 11 39 4 178 -66 86 -43 196
-96 244 -117 83 -37 88 -41 94 -75 27 -172 163 -273 309 -231 33 9 95 3 345
-34 152 -23 378 -49 640 -76 58 -5 141 -14 185 -20 44 -5 129 -12 190 -15 99
-6 112 -5 131 12 14 12 39 76 73 180 53 167 59 202 40 221 -19 19 8 69 55 107
23 17 109 72 191 121 162 96 221 144 297 245 80 105 114 187 133 320 9 63 33
180 53 260 29 117 36 165 37 250 1 60 7 118 14 135 7 17 15 53 18 81 5 47 7
50 29 46 28 -5 29 0 9 32 -9 13 -20 52 -26 86 -11 70 -30 112 -66 151 l-24 26
28 7 c15 4 48 19 73 34 l45 26 -56 11 c-77 16 -139 55 -196 123 -71 84 -128
139 -170 162 -36 20 -37 21 -8 15 17 -3 47 -15 68 -25 20 -11 37 -17 37 -15 0
3 -12 24 -26 46 -26 42 -106 89 -152 89 -13 0 -20 4 -17 10 3 6 14 10 24 10
10 0 23 6 29 13 8 10 -4 18 -53 36 -50 17 -75 34 -108 71 -60 67 -77 147 -34
165 36 16 92 141 106 240 l13 85 49 0 c95 0 173 62 232 183 51 105 68 174 74
308 5 94 2 126 -12 170 -10 30 -20 57 -24 61 -4 5 -26 -45 -50 -110 -55 -146
-111 -260 -153 -308 -29 -32 -36 -36 -70 -31 -48 6 -68 22 -68 53 0 31 -49
139 -88 197 -81 117 -268 252 -414 299 -80 25 -107 29 -213 30 -137 0 -229
-20 -350 -78 l-70 -34 -17 21 c-33 40 8 100 191 276 69 68 124 122 121 122 -3
0 -37 -9 -77 -19z m-111 -129 c-147 -147 -181 -207 -151 -263 10 -18 8 -25
-12 -40 -13 -10 -46 -37 -73 -60 -41 -35 -52 -40 -74 -32 -130 46 -30 235 206
391 76 49 173 101 195 102 5 1 -36 -44 -91 -98z m378 -190 c38 -7 40 -9 14
-10 -50 -2 -154 -37 -204 -69 -42 -26 -110 -99 -110 -117 0 -4 21 11 46 35 57
52 167 103 258 119 l68 12 67 -40 c78 -46 140 -108 173 -171 20 -40 23 -59 23
-160 0 -68 -6 -127 -13 -143 l-12 -28 -43 34 c-81 65 -365 217 -488 262 -97
36 -215 65 -261 65 -21 0 -38 3 -38 8 0 4 36 31 79 60 68 45 129 75 215 106
10 3 16 9 13 12 -9 9 -159 -45 -227 -83 -36 -19 -81 -48 -101 -64 -35 -28 -66
-39 -55 -20 10 16 113 81 184 116 139 68 293 97 412 76z m1003 -233 c11 -154
-35 -348 -107 -455 -31 -45 -92 -91 -137 -103 -57 -16 -147 2 -229 46 -86 45
-123 84 -114 122 11 48 39 87 75 105 36 17 36 17 110 -17 91 -41 128 -50 162
-37 51 20 138 167 194 329 15 45 31 82 34 82 4 0 9 -33 12 -72z m-1388 -27
c206 -50 403 -148 596 -298 l76 -58 -25 -38 c-14 -20 -29 -37 -34 -37 -6 0
-27 13 -47 29 -52 41 -252 166 -323 202 -117 59 -361 129 -449 129 -46 0 -48
7 -14 44 31 33 31 36 2 36 -16 0 -34 -14 -56 -45 -18 -25 -34 -45 -37 -45 -14
0 1 41 28 74 l32 39 85 -7 c48 -3 122 -15 166 -25z m-814 -133 c113 -161 236
-453 293 -698 33 -141 40 -206 24 -213 -203 -81 -269 -107 -277 -107 -22 0 13
51 38 56 57 13 148 45 180 65 33 20 33 20 26 77 -13 111 -80 331 -105 347 -5
3 1 -24 15 -60 18 -50 20 -65 9 -65 -7 0 -18 18 -24 41 -6 22 -22 50 -36 61
-19 17 -24 31 -24 68 0 49 -10 67 -50 94 -28 19 -110 22 -128 4 -9 -9 -21 -7
-51 10 -50 28 -96 28 -153 -1 -44 -22 -46 -22 -80 -5 -32 17 -38 17 -84 3 -65
-20 -73 -26 -63 -50 6 -17 8 -17 8 -3 1 20 49 48 83 48 28 0 86 -34 95 -56 4
-12 8 -13 14 -3 6 10 11 10 26 -2 17 -13 17 -13 0 13 -17 27 -17 28 12 43 17
8 47 15 68 15 39 0 103 -31 103 -50 0 -5 5 -10 11 -10 5 0 8 4 4 9 -9 15 29
31 72 31 46 0 76 -19 92 -59 10 -24 10 -34 -3 -60 -14 -27 -14 -30 -1 -25 17
7 21 -11 5 -21 -5 -3 -10 -11 -10 -17 0 -7 5 -6 15 2 24 20 43 5 57 -46 10
-37 19 -50 38 -54 19 -4 27 -16 36 -54 11 -42 18 -105 15 -128 -1 -4 -15 -2
-32 4 -29 10 -29 11 -13 30 17 18 17 19 -1 12 -13 -5 -16 -4 -11 4 4 7 3 20
-3 29 -8 16 -10 15 -16 -8 -6 -26 -40 -49 -71 -49 -9 0 -29 14 -46 31 -23 23
-28 33 -19 42 20 20 11 28 -14 11 -14 -9 -32 -13 -42 -9 -15 5 -12 10 18 25
57 30 64 43 50 93 -22 73 -53 127 -78 133 -20 6 -180 -43 -223 -67 -11 -6 -22
0 -41 22 l-25 31 -57 -12 c-69 -16 -111 -40 -135 -79 -16 -26 -19 -28 -36 -15
-12 8 -29 11 -45 7 -23 -6 -25 -5 -12 10 7 10 9 17 3 17 -5 0 -15 -7 -22 -15
-14 -17 -77 -20 -100 -5 -13 9 -13 12 3 21 26 15 21 30 -7 18 -17 -8 -29 -8
-45 0 -22 12 -29 41 -9 41 16 0 1 13 -20 16 -9 2 -24 -4 -33 -12 -9 -8 -20
-14 -25 -13 -5 1 -16 1 -24 0 -13 -1 -13 -2 0 -11 8 -6 26 -8 40 -5 19 4 34
-3 63 -30 45 -42 91 -67 103 -57 5 4 1 -2 -9 -14 -9 -11 -17 -26 -17 -32 0 -7
-13 -9 -35 -5 -27 4 -44 0 -75 -21 -22 -14 -40 -33 -40 -41 0 -10 -8 -13 -27
-9 -35 7 -97 -32 -101 -63 -2 -17 -17 -26 -60 -41 l-57 -19 2 -46 c1 -54 28
-140 48 -157 10 -8 27 -9 59 -2 47 10 57 3 55 -36 0 -13 -3 -11 -9 5 -8 18
-13 20 -44 13 -28 -6 -41 -4 -60 11 -23 18 -26 18 -78 1 -51 -16 -53 -18 -42
-40 8 -17 13 -20 17 -10 3 7 6 -4 6 -24 1 -21 6 -38 11 -38 6 0 10 -6 10 -14
0 -7 11 -25 25 -40 20 -21 28 -24 47 -16 13 5 52 17 87 25 52 13 66 14 72 3
16 -24 4 -41 -41 -55 -97 -30 -145 -41 -152 -35 -13 13 -80 148 -113 228 -56
133 -108 344 -120 484 -3 41 -8 84 -10 96 -5 23 12 33 163 94 55 22 91 33 89
25 -8 -19 30 -75 51 -75 32 0 33 13 2 26 -53 23 -32 92 25 82 18 -4 25 -1 25
11 0 14 2 14 9 2 8 -12 13 -11 29 9 23 28 81 33 109 8 10 -8 24 -13 31 -11 7
3 19 -1 28 -8 12 -10 20 -8 42 8 32 23 86 43 118 43 13 0 24 5 24 10 0 16 -67
2 -125 -25 -32 -16 -53 -21 -59 -15 -6 6 -19 10 -30 10 -12 0 -30 7 -40 15
-18 14 -18 15 8 25 15 5 38 13 52 16 13 3 27 11 30 16 4 6 -1 8 -12 5 -11 -3
-39 -11 -64 -17 -81 -21 -465 -171 -484 -190 -16 -16 -26 -11 -26 14 0 26 -1
26 280 143 277 116 588 222 885 302 61 16 111 30 112 30 1 1 26 -32 54 -71z
m682 20 c40 -6 73 -12 74 -13 2 -1 -6 -19 -17 -40 -25 -50 -18 -56 19 -16 33
35 55 41 101 25 10 -4 8 -8 -10 -17 -53 -26 -60 -96 -18 -165 21 -34 100 -92
178 -132 25 -12 71 -41 102 -63 55 -38 58 -39 82 -24 59 39 39 91 -65 163 -65
45 -97 77 -180 187 -11 15 -18 27 -15 27 41 0 352 -187 403 -242 l21 -23 -29
-89 c-16 -48 -47 -127 -69 -175 -44 -93 -132 -251 -140 -251 -3 0 -5 20 -5 44
0 25 -4 48 -7 52 -4 4 -40 -28 -80 -70 -40 -42 -81 -76 -90 -76 -9 0 -51 34
-93 75 -49 48 -100 86 -141 106 -43 21 -63 37 -60 46 7 17 1 17 -28 -2 -31
-21 -119 -3 -141 28 -24 34 -18 60 40 174 53 103 85 189 85 222 -1 9 -17 -18
-36 -61 l-36 -76 -36 25 c-30 20 -46 24 -79 20 -48 -5 -50 -2 -25 30 25 33 70
43 116 28 33 -12 37 -11 31 2 -3 10 3 22 15 30 11 8 20 21 20 30 0 11 -4 13
-12 5 -7 -5 -40 -15 -73 -22 -33 -6 -74 -20 -92 -30 l-32 -19 6 32 c9 47 21
66 56 87 44 27 70 25 138 -12 l59 -33 26 27 c33 33 38 96 10 127 -20 22 -101
43 -134 34 -26 -6 -29 12 -4 26 23 14 77 14 165 -1z m-229 -402 c19 -8 36 -18
40 -24 3 -5 -5 -31 -19 -56 -14 -26 -30 -67 -36 -91 l-11 -43 -41 14 c-23 8
-53 12 -68 9 -24 -6 -28 -2 -42 41 l-15 47 33 53 c41 64 90 79 159 50z m938
-51 c8 -19 8 -19 -5 -2 -13 15 -17 9 -46 -69 -17 -47 -28 -90 -25 -95 3 -5 1
-9 -4 -9 -6 0 -13 -7 -16 -16 -3 -8 -2 -12 4 -9 6 3 10 0 11 -7 0 -7 5 -2 10
11 5 14 8 30 5 37 -3 7 4 23 14 36 14 17 19 19 20 8 0 -9 -4 -20 -8 -25 -5 -6
-14 -30 -21 -54 -9 -32 -15 -40 -22 -30 -7 12 -12 10 -30 -7 -11 -12 -22 -33
-22 -47 -1 -14 -6 -25 -11 -24 -8 2 -64 -89 -65 -106 -1 -5 4 -5 11 -1 7 4 8
3 4 -5 -4 -6 -30 -23 -57 -36 -41 -21 -57 -24 -103 -19 l-55 7 33 31 c17 17
42 45 54 61 l23 30 -6 -45 c-4 -25 -9 -53 -11 -62 -8 -27 8 -22 49 15 59 51
162 249 242 462 6 16 8 17 13 5 2 -8 9 -24 14 -35z m-2738 -130 c16 -145 51
-312 96 -446 27 -82 112 -255 155 -318 l34 -49 -62 -11 c-60 -10 -62 -10 -90
17 -89 83 -198 304 -243 492 -37 155 -57 375 -36 406 9 15 126 74 129 66 1 -4
9 -74 17 -157z m1341 42 c14 -29 27 -67 31 -84 6 -30 5 -30 -88 -71 -63 -28
-94 -37 -97 -29 -2 7 -12 31 -22 55 l-19 43 73 34 c82 39 68 45 -28 13 -61
-20 -67 -20 -82 -5 -14 14 -14 17 -2 22 8 2 55 20 104 39 50 19 94 34 98 35 4
1 19 -23 32 -52z m-315 14 c0 -5 22 -33 48 -63 66 -72 132 -237 132 -330 0
-55 18 -56 22 -1 l3 48 17 -30 17 -30 1 30 c0 17 -13 49 -30 75 -16 25 -30 50
-30 56 0 6 18 18 39 26 36 15 40 14 46 -1 53 -133 76 -210 72 -242 -3 -24 -23
-61 -56 -105 -91 -121 -109 -141 -150 -162 l-40 -21 -58 20 c-134 46 -322 12
-417 -76 -67 -62 -133 21 -192 243 -16 62 -17 73 -3 50 5 -10 15 -18 21 -18 6
0 3 10 -6 23 -40 55 -57 100 -56 145 1 26 -2 59 -5 74 -6 23 -3 29 23 42 42
21 44 21 70 -19 33 -51 46 -45 38 18 -7 50 -6 53 23 70 42 25 58 21 83 -18 13
-19 26 -35 31 -35 4 0 7 24 7 53 l0 54 51 24 51 24 32 -38 c17 -20 34 -37 39
-37 4 0 7 20 7 44 0 39 4 48 34 71 49 37 136 60 136 36z m1007 -215 c29 -14
88 -59 133 -100 44 -42 94 -83 111 -92 47 -24 160 -30 198 -11 17 8 31 11 31
6 0 -12 -70 -56 -103 -64 -45 -12 -40 -23 17 -36 63 -14 130 -2 178 33 41 29
46 15 6 -15 -62 -48 -150 -55 -240 -20 -50 20 -48 38 5 50 l42 11 -36 1 c-55
2 -98 19 -169 70 -36 25 -69 46 -75 46 -5 0 -11 6 -11 13 -3 25 -5 27 -15 12
-9 -13 -10 -13 -6 1 3 9 0 22 -6 28 -14 14 -30 15 -22 1 3 -5 1 -10 -5 -10 -7
0 -9 7 -6 16 4 10 -1 22 -11 30 -21 16 -37 18 -28 4 3 -5 1 -10 -5 -10 -6 0
-10 8 -8 18 3 14 -4 17 -42 16 -25 -1 -34 0 -21 3 19 4 21 7 10 14 -31 20 27
8 78 -15z m-662 -28 c15 -34 65 -59 100 -50 20 6 39 3 64 -10 19 -10 44 -18
54 -18 31 0 15 -31 -27 -53 -21 -11 -67 -28 -101 -38 l-61 -17 -24 77 c-13 42
-30 88 -37 104 -12 24 -12 27 4 27 10 0 23 -10 28 -22z m1575 -10 c25 -27 25
-58 1 -106 -40 -78 -117 -129 -177 -117 -41 7 -54 23 -47 58 5 25 8 27 39 21
42 -8 99 11 116 39 43 69 40 106 -3 42 -28 -40 -44 -46 -27 -10 9 21 8 28 -7
45 -20 22 -20 22 10 38 32 18 72 14 95 -10z m-1037 -203 c8 -22 17 -58 21 -80
4 -22 18 -60 32 -84 27 -49 28 -58 13 -98 -11 -28 -11 -28 -20 -5 -13 34 -34
26 -54 -20 -17 -41 -19 -42 -22 -16 -2 14 -11 32 -20 40 -13 11 -18 10 -27 -5
-33 -55 -35 -54 -36 11 0 35 5 84 11 109 10 37 18 47 43 56 30 11 28 12 -47
24 -82 12 -167 47 -167 67 0 7 16 18 35 25 28 10 35 18 35 39 0 20 3 23 12 14
7 -7 26 -12 43 -12 20 0 40 -9 54 -24 13 -14 37 -30 54 -36 l31 -10 -29 32
c-44 48 -57 58 -87 64 -26 6 -27 7 -11 28 l17 22 53 -51 c31 -29 58 -66 66
-90z m1007 -71 c55 -43 115 -130 134 -192 l13 -47 -38 -3 c-47 -4 -51 -17 -7
-26 89 -18 196 -108 219 -185 15 -51 34 -55 24 -4 -11 61 -42 110 -95 152 -27
22 -55 41 -62 44 -7 2 -10 8 -6 12 11 11 129 -48 194 -97 69 -52 182 -189 228
-278 47 -91 83 -205 102 -323 20 -124 16 -171 -29 -357 -20 -80 -40 -188 -46
-240 -16 -130 -34 -181 -103 -281 -80 -119 -152 -183 -298 -269 -185 -108
-231 -141 -263 -186 l-29 -42 -73 34 c-41 19 -78 34 -83 34 -5 0 -36 11 -70
25 -34 14 -100 36 -148 50 -90 26 -359 75 -413 75 -35 0 -40 12 -13 32 10 7
40 41 65 75 36 46 55 63 80 68 127 26 395 147 817 369 101 53 176 73 222 57
38 -13 38 -13 38 -1 0 15 -81 32 -130 28 -28 -3 -80 -23 -135 -51 -309 -161
-616 -309 -697 -335 -111 -37 -331 -92 -364 -92 -22 0 -24 3 -17 27 24 91 -11
442 -41 412 -2 -2 0 -24 4 -49 12 -58 13 -336 2 -375 l-8 -30 -130 -18 c-271
-37 -338 -49 -431 -78 -52 -16 -105 -29 -116 -29 -27 0 -113 56 -136 89 -10
14 -29 61 -41 104 -21 69 -83 177 -96 164 -2 -2 8 -27 22 -56 14 -29 23 -55
20 -58 -2 -2 -29 21 -60 52 -57 58 -130 187 -142 250 -5 26 0 36 28 64 74 73
288 187 430 230 86 26 110 31 243 45 l115 12 0 -75 c-1 -42 -9 -121 -19 -176
-10 -55 -17 -102 -15 -104 8 -9 37 77 49 144 16 88 30 65 22 -38 -4 -60 -3
-68 9 -53 23 32 29 124 11 180 -9 28 -22 94 -28 148 -12 96 -12 96 15 152 29
59 72 99 151 138 56 28 82 25 109 -14 18 -25 21 -93 6 -135 -9 -26 -9 -27 5
-8 18 23 35 79 35 118 0 18 -11 39 -30 59 -17 17 -29 33 -26 35 10 11 79 -32
104 -65 47 -61 85 -103 89 -99 4 5 -60 113 -82 137 -8 9 -15 20 -15 25 0 14
133 -2 186 -23 55 -21 153 -81 196 -120 48 -44 40 -17 -11 36 -49 51 -122 95
-196 117 -49 15 -49 31 -5 121 58 118 210 230 360 265 59 13 191 16 228 5 13
-5 22 -3 22 3 0 6 -8 11 -18 11 -10 0 -42 16 -72 35 l-55 34 55 2 c30 0 81 0
113 -1 31 -1 57 3 57 7 0 13 -50 58 -85 76 -32 16 -33 15 36 36 19 6 51 27 69
46 l34 35 -55 0 c-69 0 -95 15 -44 24 36 7 85 45 85 66 0 5 -14 10 -30 10 -35
0 -77 19 -102 46 -16 18 -15 19 27 16 24 -2 52 1 62 7 25 14 23 15 73 -25z
m-1331 -1 c-39 -43 -76 -105 -84 -141 -3 -18 -11 -32 -17 -32 -5 0 -8 -12 -5
-27 2 -16 2 -21 -1 -13 -2 8 -12 -10 -22 -40 -13 -41 -22 -55 -36 -55 -16 0
-20 10 -25 60 -3 33 -2 64 3 70 4 5 8 16 8 25 -1 11 -5 9 -19 -7 -11 -13 -25
-23 -33 -24 -7 0 -3 -4 10 -9 22 -9 32 -50 12 -50 -5 0 -10 9 -10 20 0 13 -9
22 -25 26 -21 5 -23 8 -10 21 10 9 15 34 15 66 -1 48 -2 51 -16 32 -8 -11 -13
-24 -10 -30 2 -6 -5 -12 -15 -12 -19 -2 -19 -1 0 25 22 30 60 72 66 72 2 0 1
-25 -2 -55 -6 -60 -1 -66 33 -34 l23 22 -6 -87 c-4 -62 -3 -86 6 -86 6 0 11
10 11 22 0 49 51 155 101 211 28 31 56 57 62 57 6 0 0 -12 -14 -27z m71 -93
c-13 -8 -13 -10 0 -10 10 0 7 -5 -8 -16 -40 -28 -28 -42 36 -42 31 1 60 6 64
12 15 22 7 36 -19 36 -16 0 -33 4 -40 8 -7 4 8 7 31 7 l44 0 4 -110 c6 -145
15 -163 48 -84 14 32 28 59 33 59 4 0 7 -23 7 -51 0 -63 15 -61 52 7 18 32 28
42 28 29 1 -42 16 -47 39 -13 l23 33 49 -49 c27 -27 48 -51 46 -52 -2 -2 -23
16 -47 40 -43 43 -45 43 -58 24 -8 -10 -12 -22 -9 -24 7 -7 -38 -54 -52 -54
-6 0 -12 10 -12 23 -1 20 -2 20 -6 2 -3 -11 -14 -26 -25 -33 -12 -9 -17 -20
-13 -33 5 -15 1 -19 -15 -19 -16 0 -20 -4 -16 -16 3 -9 6 -27 6 -40 0 -23 3
-24 59 -24 57 0 59 -1 65 -30 7 -38 6 -46 -5 -42 -5 1 -9 -3 -9 -9 0 -6 9 -9
20 -6 11 3 20 4 20 3 0 -1 -16 -18 -36 -37 -26 -24 -33 -28 -25 -12 15 30 14
43 -5 43 -8 0 -12 -4 -9 -10 3 -5 -1 -10 -9 -10 -10 0 -13 6 -10 15 4 8 15 15
25 15 10 0 19 5 19 10 0 6 -9 10 -20 10 -11 0 -20 4 -20 8 0 5 -7 9 -15 9 -8
0 -12 -4 -9 -9 3 -4 -2 -15 -10 -24 -14 -14 -14 -19 -1 -51 8 -19 15 -37 15
-40 0 -2 5 -1 10 2 6 3 10 -3 10 -14 0 -12 -3 -21 -7 -21 -5 0 -21 -24 -38
-53 l-30 -52 -3 34 c-2 19 1 71 7 115 8 54 8 82 1 84 -5 2 -10 10 -10 18 0 8
-5 14 -10 14 -11 0 -9 -22 3 -31 5 -3 -8 -24 -29 -45 -20 -21 -32 -32 -26 -23
6 8 8 26 5 40 -6 20 -4 22 9 12 8 -7 18 -10 21 -7 9 9 -21 36 -32 30 -5 -4
-11 0 -14 6 -5 14 -6 13 -30 -65 l-15 -49 23 4 c20 4 22 3 12 -14 -7 -10 -13
-14 -15 -8 -6 18 -22 10 -22 -11 0 -11 4 -18 9 -15 5 4 4 -8 -2 -25 l-12 -31
-5 33 c-5 33 15 132 39 193 8 20 9 32 1 40 -7 7 -10 5 -10 -5 0 -9 -9 -24 -20
-34 -32 -29 -53 -110 -46 -176 3 -34 2 -61 -4 -64 -13 -8 -13 -75 0 -75 6 0
11 10 11 23 1 13 3 16 6 6 2 -8 -3 -30 -10 -48 l-14 -34 -7 46 c-9 62 -6 236
5 243 5 3 9 10 9 17 0 6 -6 3 -13 -8 -8 -10 -19 -15 -25 -11 -7 4 -10 -1 -7
-14 3 -16 -29 -90 -39 -90 0 0 -2 14 -2 30 -1 24 3 30 20 31 11 0 15 3 9 6 -7
2 -13 13 -13 24 0 21 -15 25 -26 8 -4 -7 -11 -37 -15 -68 -8 -54 -8 -53 -4 14
3 39 7 79 9 90 2 12 7 46 11 78 6 44 11 57 24 57 10 0 17 9 18 23 2 22 2 22
-14 2 -14 -19 -15 -18 -8 15 4 19 12 38 17 41 5 3 8 32 6 65 -2 49 -6 59 -20
58 -10 -1 -18 2 -18 7 0 5 9 9 20 9 15 0 20 7 20 28 1 36 36 112 52 112 9 0 9
-3 -2 -10z m-2090 -20 c151 -24 292 -129 367 -276 55 -106 67 -137 51 -132 -7
3 -13 11 -13 19 0 26 -27 79 -38 72 -6 -3 -7 -1 -3 5 10 16 -12 54 -27 46 -7
-4 -8 -3 -4 1 10 12 -133 155 -155 155 -9 0 -20 5 -23 10 -3 6 -12 10 -18 10
-7 0 -2 -8 9 -18 46 -37 56 -88 24 -117 -24 -22 -19 -45 21 -95 16 -19 29 -42
29 -52 0 -9 4 -19 9 -22 16 -10 -1 -58 -25 -68 -20 -9 -29 -5 -70 31 -40 35
-74 52 -74 37 0 -2 15 -33 34 -69 19 -36 32 -68 29 -71 -4 -3 -1 -6 6 -6 7 0
9 10 6 28 -5 26 -5 26 5 4 5 -13 8 -28 5 -33 -3 -5 -2 -26 4 -46 14 -55 21
-146 13 -160 -13 -20 -37 6 -81 88 -11 20 -42 55 -68 78 -44 39 -48 41 -60 25
-7 -10 -13 -43 -13 -74 0 -58 -11 -80 -42 -80 -40 0 -67 24 -100 89 -30 61
-33 75 -38 187 -5 127 -21 174 -58 174 -27 -1 -58 -32 -71 -73 -10 -29 -18
-37 -37 -37 -13 0 -24 3 -24 8 0 4 -5 14 -10 22 -8 13 -11 12 -24 -5 -9 -11
-16 -29 -16 -41 0 -11 -5 -25 -11 -31 -17 -17 -22 -122 -10 -183 6 -30 13 -70
16 -88 3 -19 12 -49 20 -68 8 -19 10 -34 6 -34 -5 0 -25 44 -45 98 -95 249
-38 464 166 622 36 28 90 49 163 65 75 17 95 17 175 5z m1507 -125 c30 -12 45
-25 52 -47 15 -43 14 -51 -6 -43 -20 8 -41 12 -125 21 -55 7 -57 8 -65 43 -8
32 -13 37 -48 43 -24 4 -1 5 55 4 60 -2 110 -10 137 -21z m511 -856 c7 -28 12
-54 12 -58 0 -4 -42 -13 -92 -19 -171 -23 -230 -34 -300 -57 -37 -12 -70 -20
-71 -16 -2 3 -10 26 -17 51 -8 25 -18 48 -24 52 -33 23 275 95 415 97 l66 1
11 -51z m-1602 -267 c6 -9 30 -52 53 -95 l43 -78 -17 -37 c-37 -85 -41 -86
-80 -21 -16 28 -38 58 -48 66 -17 16 -17 15 -1 -23 9 -21 23 -54 31 -72 15
-32 13 -49 -4 -39 -21 13 -171 277 -157 277 2 0 24 -13 50 -30 51 -32 64 -31
64 3 0 16 11 5 39 -39 40 -63 66 -91 54 -57 -9 27 -43 103 -64 145 l-19 38 23
-11 c13 -6 28 -18 33 -27z m288 -63 c21 -6 57 -28 80 -49 61 -57 136 -219 122
-268 -2 -9 -7 -30 -11 -46 -6 -27 -5 -28 10 -16 15 12 19 12 31 -5 54 -74 39
-208 -32 -279 -38 -37 -49 -29 -45 33 3 56 -14 95 -47 105 -10 3 -25 22 -34
41 -14 31 -14 34 1 33 59 -4 70 16 14 27 -20 3 -49 19 -64 34 -27 28 -27 29
-13 70 8 23 11 53 8 66 -7 27 -34 56 -34 36 0 -7 -4 -9 -10 -6 -6 4 -10 -19
-10 -62 0 -122 -41 -203 -102 -203 -61 0 -68 11 -68 113 0 142 14 210 55 263
19 25 35 49 35 54 0 5 3 17 6 27 3 10 -7 4 -25 -16 -17 -19 -32 -33 -34 -30
-45 60 -43 63 33 78 63 12 89 12 134 0z m-400 -163 c30 -52 31 -56 11 -56 -23
0 -84 -32 -90 -48 -4 -11 0 -13 22 -6 16 5 63 7 105 6 43 -2 87 2 98 8 19 10
20 8 20 -47 l0 -58 -21 33 c-32 49 -35 30 -4 -23 14 -26 24 -53 21 -60 -11
-29 -77 -47 -148 -41 -36 3 -74 9 -83 12 -21 8 -63 92 -71 142 -10 61 19 137
64 167 19 13 39 22 43 20 4 -3 19 -25 33 -49z m692 -77 c25 -20 52 -87 59
-142 l7 -56 -35 11 c-24 7 -40 20 -47 39 -7 16 -18 34 -26 40 -8 6 -14 26 -14
45 0 18 -5 45 -10 60 -10 26 -10 26 21 20 18 -3 38 -11 45 -17z m-264 -236
c10 -9 18 -24 18 -34 0 -26 -35 -43 -59 -29 -32 17 -36 12 -11 -15 19 -20 26
-22 44 -13 46 25 -69 -111 -122 -144 -68 -42 -239 -4 -263 59 -12 33 -10 35
32 23 63 -18 120 -12 176 20 51 29 112 84 140 128 18 26 21 27 45 5z m-241
-24 c27 -25 40 -30 71 -27 21 2 38 1 38 -2 0 -3 -24 -21 -52 -40 -45 -30 -61
-35 -104 -33 -66 2 -157 29 -176 51 -9 9 -18 30 -20 45 -5 23 -2 27 11 22 36
-15 136 -16 161 -1 35 20 34 20 71 -15z m330 -86 c5 -13 9 -30 9 -38 0 -19
-35 -28 -60 -15 -11 6 -20 7 -20 2 0 -14 23 -32 42 -32 29 0 21 -15 -42 -82
l-60 -63 -23 32 c-12 18 -25 33 -29 33 -15 0 -8 -20 13 -41 30 -30 9 -41 -61
-35 -74 6 -130 26 -148 54 -15 22 -14 22 12 12 39 -14 101 -12 142 5 44 18
144 119 167 168 20 41 42 41 58 0z m35 -170 c10 -21 20 -39 21 -41 0 -2 15 4
32 12 40 21 44 20 80 -10 53 -44 51 -123 -4 -144 -33 -13 -58 -3 -77 31 -10
16 -29 34 -44 39 -31 12 -47 3 -21 -11 22 -13 47 -61 47 -94 0 -64 -97 -90
-145 -39 -29 31 -33 82 -9 119 13 19 13 27 2 44 -11 18 -9 24 17 51 l30 31 27
-33 c30 -36 35 -25 14 34 -13 35 -12 48 4 48 4 0 15 -17 26 -37z m636 -111
c-25 -82 -10 -153 42 -210 33 -37 71 -52 131 -52 68 0 123 26 162 76 34 44
110 124 118 124 10 0 -25 -73 -57 -121 -40 -59 -108 -105 -176 -120 -55 -11
-127 -5 -117 11 3 4 -4 6 -14 3 -14 -3 -33 9 -66 43 -73 76 -91 175 -53 284 9
29 12 30 26 16 13 -13 14 -21 4 -54z m181 -56 c4 -10 4 -55 0 -100 -3 -44 -8
-75 -10 -68 -3 6 -9 12 -14 12 -6 0 -7 -5 -3 -11 5 -9 -1 -10 -22 -5 -16 4
-30 9 -31 10 -7 7 11 186 18 186 5 0 9 -5 9 -12 0 -8 3 -9 10 -2 7 7 4 25 -10
58 -11 26 -20 51 -20 54 0 9 64 -98 73 -122z"/>
<path d="M3348 3653 c-31 -5 -53 -27 -43 -44 4 -6 19 -9 34 -6 36 7 123 -8
168 -30 21 -10 59 -40 85 -67 40 -42 49 -47 62 -37 13 11 14 17 2 40 -20 36
-74 85 -121 109 -36 18 -136 44 -153 41 -4 -1 -19 -4 -34 -6z"/>
<path d="M4190 2542 c90 -60 209 -207 262 -322 30 -64 58 -173 61 -230 2 -59
17 -48 17 13 -1 198 -148 454 -309 536 -48 25 -66 27 -31 3z"/>
<path d="M3985 4555 c17 -8 35 -14 41 -15 14 0 193 -120 247 -164 83 -69 190
-236 203 -318 7 -43 36 -52 54 -19 16 31 -70 190 -148 273 -99 105 -290 224
-402 252 -21 5 -20 3 5 -9z"/>
<path d="M4840 4394 c30 -85 34 -165 17 -290 -35 -246 -144 -417 -295 -460
-32 -9 -60 -21 -63 -27 -4 -5 -10 -33 -13 -61 -8 -59 -78 -211 -105 -228 -12
-7 -17 -19 -13 -32 8 -33 63 -86 110 -107 56 -24 76 -24 37 0 -16 10 -38 28
-49 39 -18 21 -18 22 17 89 37 71 61 141 72 206 3 20 12 37 19 37 7 0 35 7 64
15 113 34 212 169 263 361 30 109 33 353 6 431 -19 55 -29 67 -64 77 l-22 7
19 -57z"/>
<path d="M2614 4216 c18 -23 49 -67 70 -99 44 -67 146 -278 146 -301 0 -35 19
-23 25 17 6 39 1 54 -45 148 -84 167 -156 262 -205 271 -23 5 -23 4 9 -36z"/>
<path d="M4590 3134 c6 -14 8 -29 5 -34 -3 -4 11 -17 30 -29 40 -23 95 -104
95 -138 0 -29 67 -122 113 -157 35 -27 98 -56 119 -56 7 1 -3 9 -22 20 -63 33
-160 151 -160 194 0 33 -41 92 -87 125 -24 17 -43 38 -43 46 0 17 -35 55 -50
55 -6 0 -6 -9 0 -26z"/>
<path d="M1252 2734 c36 -57 106 -216 117 -266 29 -128 35 -184 35 -293 -1
-99 -6 -136 -28 -210 -49 -167 -60 -214 -54 -220 3 -4 21 -3 40 0 34 6 35 8
61 98 39 141 47 190 47 296 0 116 -31 314 -60 378 -11 25 -20 47 -20 49 0 2
24 4 53 4 29 0 109 14 177 31 69 16 133 31 143 32 13 1 17 11 17 44 0 54 4 54
-195 3 -215 -55 -215 -55 -294 27 -52 55 -59 60 -39 27z"/>
<path d="M5028 2699 c31 -32 5 -97 -48 -119 -34 -14 -36 -20 -14 -61 8 -17 19
-56 25 -87 5 -31 18 -75 30 -97 17 -33 19 -45 10 -67 -7 -18 -18 -28 -31 -28
-12 0 -20 -7 -20 -17 -1 -10 -8 -36 -16 -58 -9 -24 -16 -84 -17 -150 -2 -87
-10 -141 -39 -255 -20 -80 -43 -196 -52 -259 -18 -132 -53 -214 -137 -326
-100 -131 -158 -176 -439 -337 -72 -41 -103 -74 -94 -101 14 -42 4 -92 -49
-255 -69 -209 -75 -216 -195 -221 -48 -2 -134 2 -192 8 -58 7 -168 18 -245 27
-287 29 -434 47 -560 65 -271 41 -375 50 -436 39 -160 -29 -313 83 -344 253
-4 22 -15 41 -24 44 -9 3 -63 28 -120 55 -57 26 -105 48 -106 48 -1 0 -5 -19
-8 -41 -7 -51 -55 -105 -108 -120 -22 -7 -43 -22 -54 -41 -19 -34 -85 -67
-130 -68 -76 0 -141 39 -172 105 -14 30 -14 30 -8 -15 8 -62 47 -117 98 -141
88 -40 232 -16 273 46 9 14 40 37 69 50 42 20 57 34 76 73 13 26 24 48 25 50
0 1 42 -16 92 -39 89 -41 90 -42 102 -87 26 -103 83 -177 168 -219 55 -27 63
-28 222 -29 122 -1 208 -8 330 -27 180 -28 270 -39 490 -61 80 -9 213 -23 295
-32 83 -9 202 -17 265 -18 144 -1 178 12 208 82 41 97 101 303 108 372 8 85 0
77 219 204 201 116 300 217 386 392 34 67 44 102 60 208 11 71 35 194 54 275
21 90 37 188 41 252 7 115 27 204 49 213 28 10 28 72 1 178 -31 123 -32 140
-7 162 45 41 34 152 -17 175 -22 10 -25 10 -14 0z"/>
<path d="M166 2350 c8 -79 47 -187 117 -323 49 -96 76 -135 145 -208 134 -142
220 -200 399 -269 l75 -29 19 22 c10 12 18 25 19 28 0 4 -44 24 -97 44 -208
80 -322 157 -441 297 -92 108 -191 299 -228 438 l-14 55 6 -55z"/>
<path d="M871 1344 c-2 -43 20 -131 49 -189 16 -33 39 -86 51 -118 12 -34 31
-64 45 -74 13 -8 33 -34 43 -57 10 -22 52 -75 92 -118 78 -81 111 -97 232
-114 l47 -6 0 39 0 40 -67 6 c-93 8 -158 32 -186 69 -12 17 -41 49 -64 72 -24
22 -48 57 -54 75 -7 19 -29 51 -50 71 -26 24 -39 47 -44 75 -4 22 -17 56 -29
75 -25 38 -53 110 -59 150 -4 20 -5 21 -6 4z"/>
</g>
</svg>
