<?xml version="1.0" standalone="no"?>
<!DOCTYPE svg PUBLIC "-//W3C//DTD SVG 20010904//EN"
 "http://www.w3.org/TR/2001/REC-SVG-20010904/DTD/svg10.dtd">
<svg version="1.0" xmlns="http://www.w3.org/2000/svg"
 width="512.000000pt" height="512.000000pt" viewBox="0 0 512.000000 512.000000"
 preserveAspectRatio="xMidYMid meet">
<metadata>
Created by potrace 1.16, written by Peter Selinger 2001-2019
</metadata>
<g transform="translate(0.000000,512.000000) scale(0.100000,-0.100000)"
fill="#000000" stroke="none">
<path d="M3454 5023 c3 -10 22 -86 41 -168 42 -178 64 -317 59 -365 -3 -19 -7
-54 -10 -77 -3 -25 -16 -55 -30 -72 l-25 -30 -74 54 c-86 62 -285 144 -407
169 -89 18 -319 21 -416 6 -234 -38 -445 -168 -582 -358 -44 -61 -45 -62 -92
-62 -75 0 -96 25 -113 135 -16 95 -19 410 -7 563 4 45 4 82 1 82 -11 0 -83
-101 -116 -160 -59 -108 -108 -288 -125 -461 -13 -126 -3 -282 25 -386 27
-103 92 -163 190 -177 l47 -7 0 -119 0 -118 -46 -16 c-57 -19 -100 -51 -182
-133 -104 -105 -197 -136 -289 -98 -20 8 -38 13 -40 11 -11 -10 64 -78 113
-102 47 -23 63 -26 114 -21 33 3 60 4 60 2 0 -2 -28 -13 -62 -24 -45 -15 -88
-21 -157 -21 -128 -1 -184 -20 -229 -79 -18 -24 -31 -45 -29 -47 2 -2 18 1 36
7 39 14 111 7 170 -17 l43 -17 -31 -24 c-17 -14 -50 -52 -72 -85 -47 -69 -111
-114 -177 -124 l-46 -7 23 -18 c13 -11 31 -19 42 -19 28 0 29 -12 5 -42 -17
-22 -53 -38 -176 -78 -178 -58 -326 -127 -422 -197 -168 -123 -272 -338 -267
-553 1 -63 -3 -89 -25 -144 -25 -62 -26 -71 -16 -129 6 -34 24 -89 40 -122 24
-49 40 -67 87 -97 143 -91 323 -158 445 -166 43 -2 78 -8 78 -13 0 -4 -28 -21
-62 -38 -72 -34 -162 -47 -225 -33 -49 11 -52 8 -20 -19 69 -60 173 -84 241
-55 51 21 60 11 10 -11 -32 -15 -68 -18 -204 -18 -139 0 -171 -3 -205 -19
l-40 -18 71 -23 c39 -12 109 -45 155 -73 101 -62 164 -77 294 -69 50 3 110 2
135 -2 42 -8 40 -9 -30 -10 -98 -2 -184 -23 -267 -65 l-68 -34 105 -4 c102 -4
108 -6 217 -56 174 -82 303 -99 426 -57 37 12 40 12 22 -1 -34 -25 -116 -45
-225 -54 -97 -8 -193 -31 -205 -50 -2 -4 27 -10 65 -14 40 -3 101 -19 146 -37
61 -25 94 -32 155 -33 l76 -1 -32 -40 c-31 -38 -50 -75 -39 -75 2 0 28 12 56
26 108 55 127 58 373 59 144 1 248 6 279 13 27 7 50 11 53 9 2 -3 -11 -17 -29
-32 -42 -36 -143 -83 -199 -94 l-44 -8 28 -11 c16 -7 59 -15 96 -18 90 -9 192
15 303 71 128 65 228 93 366 104 66 5 129 7 141 4 11 -3 21 -1 21 5 0 5 33 20
73 32 81 24 157 64 234 121 43 32 60 39 100 39 106 1 330 71 412 129 25 18 35
20 53 11 22 -10 22 -10 4 4 -18 15 -18 16 8 46 14 17 26 38 26 45 0 27 17 24
18 -3 0 -15 5 -47 11 -72 9 -40 7 -50 -14 -87 -13 -24 -21 -43 -19 -43 3 0 23
10 45 23 36 20 40 25 35 52 -3 17 -12 67 -21 113 -38 211 -37 318 6 597 25
163 40 229 47 201 7 -30 -18 -239 -30 -254 -8 -9 -8 -16 1 -25 10 -9 11 -8 5
8 -4 11 -4 17 1 13 17 -16 94 114 124 210 10 31 24 58 31 60 7 3 10 1 7 -4 -3
-5 14 -10 37 -10 48 -2 225 -69 297 -113 60 -37 70 -39 39 -6 -58 61 -278 165
-352 165 -16 0 -28 2 -28 5 0 3 9 45 19 93 44 195 49 372 15 545 -15 75 -73
258 -95 300 -9 15 -6 26 10 48 28 38 26 45 -6 24 -15 -10 -28 -14 -30 -9 -2 5
-28 50 -58 99 l-54 90 59 7 c63 7 105 25 133 56 18 19 17 20 -45 24 -35 2 -83
14 -108 26 l-45 21 40 -5 c43 -5 97 6 102 22 2 5 -19 18 -47 29 -49 19 -71 43
-27 30 73 -22 178 -85 245 -149 l72 -69 -47 -27 c-27 -15 -58 -42 -71 -59 -23
-32 -15 -44 9 -14 23 27 168 90 254 109 200 44 497 -1 640 -99 33 -23 41 -25
43 -11 4 19 -15 34 -93 73 -129 64 -366 102 -502 82 -71 -11 -79 -10 -88 6 -5
10 -27 35 -47 56 l-37 38 31 -6 31 -7 -29 40 c-29 41 -88 82 -118 82 -24 0
-19 15 9 30 14 7 31 23 39 35 15 22 14 23 -37 21 -59 -1 -132 17 -165 42 -22
17 -20 17 51 14 56 -3 82 0 108 13 l34 18 -40 12 c-102 30 -166 83 -185 153
-67 248 -91 311 -149 397 -14 21 -17 33 -10 42 7 8 7 34 0 82 l-11 70 53 53
c78 79 102 133 101 238 0 194 -160 565 -313 726 -26 29 -58 57 -71 64 -19 10
-21 10 -16 -7z m79 -89 c119 -133 233 -373 277 -584 31 -150 6 -244 -88 -332
-54 -51 -137 -83 -296 -114 -71 -14 -87 -15 -111 -3 -48 23 -69 62 -73 134 -8
126 32 194 123 209 118 18 183 63 205 141 26 92 2 302 -58 518 -11 37 -18 67
-15 67 2 0 18 -16 36 -36z m-1771 -356 c-5 -308 8 -405 61 -454 21 -20 50 -34
76 -39 46 -8 46 -8 27 -38 -26 -39 -76 -175 -89 -239 l-13 -63 -39 4 c-86 7
-146 57 -172 143 -55 187 -31 535 51 739 23 54 93 189 99 189 2 0 1 -109 -1
-242z m1198 -69 c79 -12 247 -67 321 -104 70 -35 169 -98 169 -107 0 -19 -41
-5 -94 32 -79 55 -137 83 -234 113 -88 27 -104 22 -26 -8 88 -33 259 -145 243
-159 -2 -2 -27 -6 -55 -10 -49 -6 -79 5 -114 44 -13 14 -91 59 -153 88 -76 36
-226 80 -299 89 -53 6 -63 19 -20 26 56 8 199 6 262 -4z m-555 -73 c-164 -78
-334 -247 -422 -418 -39 -76 -78 -198 -95 -295 -8 -48 -17 -73 -25 -73 -15 0
-12 28 13 162 29 153 124 327 247 452 79 80 138 119 257 173 123 56 142 55 25
-1z m1209 -587 c20 -71 17 -77 -53 -112 l-48 -24 -11 60 c-6 33 -15 64 -20 69
-5 5 -46 -9 -93 -31 -94 -43 -230 -94 -236 -88 -2 3 25 15 59 28 35 12 115 47
178 77 119 56 177 80 196 81 6 1 19 -26 28 -60z m-824 -58 c37 -37 47 -74 27
-105 -9 -13 -65 -47 -133 -81 -134 -65 -206 -117 -288 -210 -50 -56 -62 -65
-92 -65 -19 0 -46 -7 -59 -16 -30 -20 -65 -74 -65 -101 0 -11 -24 -54 -54 -94
-73 -101 -190 -318 -127 -238 85 110 211 303 211 323 0 14 14 40 34 60 27 29
41 36 72 36 23 0 100 25 203 67 l166 66 125 0 c69 0 147 -3 172 -7 46 -7 47
-7 41 -40 -4 -26 0 -39 16 -55 11 -11 29 -21 38 -21 14 0 13 4 -6 24 -29 30
-25 70 6 74 16 2 28 -6 43 -30 24 -40 25 -50 3 -77 -20 -24 -74 -36 -226 -52
-108 -11 -231 -46 -317 -89 -31 -15 -75 -33 -98 -39 -64 -18 -43 -35 32 -27
162 18 299 22 416 12 l125 -11 -3 -40 c-2 -30 2 -45 15 -57 22 -19 63 -33 63
-21 0 5 -10 13 -22 18 -18 8 -23 18 -23 45 0 30 4 36 24 38 45 7 66 -54 40
-112 -21 -45 -76 -58 -247 -57 -103 1 -177 -4 -230 -15 -78 -16 -178 -54 -223
-86 -24 -17 -24 -17 22 -11 31 3 55 0 76 -10 18 -10 73 -18 144 -23 125 -7
147 -15 225 -79 49 -39 51 -43 38 -66 -18 -33 -17 -42 7 -68 25 -26 36 -22 18
7 -10 16 -10 26 -1 47 12 27 13 27 32 10 30 -27 25 -69 -11 -99 -39 -33 -51
-33 -142 4 -85 34 -113 36 -211 15 -87 -18 -123 -42 -257 -171 -59 -57 -119
-108 -134 -114 -94 -36 -236 21 -357 142 -92 93 -139 191 -139 293 0 73 49
203 164 430 42 83 79 163 83 179 4 15 22 42 42 60 64 57 90 86 125 139 78 117
137 158 352 244 61 24 116 47 122 50 7 3 17 -6 22 -20 14 -36 53 -59 85 -51
31 8 34 19 5 21 -27 2 -59 31 -59 54 0 16 9 20 53 28 5 0 21 -12 37 -28z m959
-156 c16 -38 46 -129 66 -202 42 -147 67 -187 137 -222 l43 -21 -33 0 c-36 0
-87 23 -95 42 -4 11 -7 10 -15 0 -7 -10 -14 -9 -33 7 -13 11 -19 20 -12 21 6
0 15 -4 18 -10 9 -15 25 -12 25 6 0 9 -5 12 -12 8 -6 -4 -8 -3 -5 3 8 13 -11
72 -31 96 -8 9 -12 17 -9 17 3 0 -1 21 -9 48 -16 51 -22 72 -23 86 -1 4 -8 5
-17 2 -13 -5 -14 -4 -6 7 12 14 9 33 -15 110 -8 26 -19 45 -24 42 -5 -4 -6 1
-3 10 4 8 2 21 -3 28 -6 6 -13 21 -16 32 -16 48 45 -45 72 -110z m-535 -201
c46 -120 84 -275 93 -379 l6 -79 -43 32 c-24 18 -51 32 -60 32 -9 0 -22 11
-28 25 -6 13 -24 31 -40 39 -38 19 -263 41 -412 40 l-115 -2 60 23 c61 24 164
44 333 66 138 18 180 60 144 142 -26 58 -40 67 -129 81 l-78 12 59 13 c32 7
81 21 109 31 29 10 55 19 58 19 4 1 23 -42 43 -95z m281 -57 c35 -157 113
-317 197 -400 32 -33 51 -56 41 -52 -10 4 -26 10 -35 12 -10 3 -18 10 -18 15
0 5 -4 6 -10 3 -6 -4 -7 1 -3 12 6 16 5 16 -10 5 -14 -12 -19 -11 -34 3 -26
27 -28 1 -2 -41 27 -44 97 -91 159 -106 l45 -12 -30 -8 c-17 -4 -37 -5 -45 -2
-8 4 -30 8 -48 9 -36 4 -49 11 -39 21 4 4 13 1 22 -6 9 -7 18 -11 20 -8 3 2
-9 14 -25 27 l-30 22 -1 -23 c0 -22 -1 -22 -8 -3 -5 11 -4 23 1 26 7 4 6 9 0
13 -6 3 -13 2 -17 -4 -12 -19 -21 -10 -44 45 -13 31 -39 68 -59 87 -20 17 -28
28 -17 24 11 -5 25 -9 32 -9 7 0 10 -4 7 -9 -3 -5 0 -15 6 -24 10 -11 16 -12
26 -3 8 6 14 8 14 3 0 -5 5 -2 10 6 6 10 10 11 10 3 0 -7 5 -13 10 -13 14 0
12 16 -4 32 -7 8 -21 29 -31 48 -10 19 -25 41 -34 49 -9 9 -11 12 -4 7 7 -5
-3 26 -21 67 -38 82 -54 157 -56 252 -2 73 2 95 7 40 2 -22 10 -70 18 -108z
m206 61 c16 -29 15 -189 0 -246 -12 -42 -41 -82 -61 -82 -5 0 -16 13 -24 28
-13 26 -13 29 5 40 30 19 59 73 59 109 0 35 -18 83 -32 83 -10 0 -10 -3 2 -34
12 -31 7 -33 -21 -5 -14 14 -29 19 -45 16 -30 -5 -30 -2 0 47 38 64 95 85 117
44z m-1669 -34 c15 -5 14 -9 -11 -30 -19 -16 -41 -56 -66 -119 -20 -52 -40
-97 -45 -100 -23 -14 -40 154 -24 235 l7 32 61 -7 c34 -3 69 -9 78 -11z m1193
-465 c8 -30 16 -75 17 -99 l3 -45 -48 2 c-26 2 -77 12 -114 24 -80 26 -148 22
-219 -13 -40 -20 -57 -23 -89 -17 -22 4 -69 8 -105 9 -71 0 -110 8 -110 21 0
4 30 18 68 30 58 19 92 23 253 24 112 2 200 7 222 14 44 15 87 63 87 99 0 40
19 14 35 -49z m-1600 -81 c-24 -42 -31 -98 -19 -145 10 -37 19 -27 21 23 1 25
12 66 25 92 23 46 24 47 75 50 l52 3 -25 -57 c-14 -32 -28 -80 -31 -106 -6
-54 -5 -52 -118 -124 -180 -115 -330 -178 -764 -323 -322 -108 -375 -133 -439
-211 -43 -52 -89 -152 -97 -212 -10 -68 10 -62 30 9 35 121 102 215 186 262
39 22 42 22 34 5 -62 -146 -75 -326 -36 -494 14 -63 54 -160 91 -225 17 -30
28 -60 25 -66 -8 -12 24 -51 35 -44 12 8 43 -33 34 -46 -4 -7 -3 -10 3 -6 6 4
21 -5 34 -20 13 -14 42 -39 64 -56 l40 -29 -95 5 c-71 3 -119 13 -190 37 -110
37 -128 46 -233 108 -67 40 -81 54 -102 97 -13 28 -29 77 -35 111 -11 55 -10
66 8 105 l19 44 12 -28 c14 -37 58 -94 77 -101 11 -4 10 2 -5 23 -12 16 -21
33 -21 38 0 4 -11 35 -25 68 -61 149 -8 392 119 548 74 90 196 172 351 235
100 40 378 132 384 126 3 -2 -13 -22 -34 -44 -22 -22 -36 -40 -31 -40 10 0 96
62 96 69 0 3 12 20 28 36 15 17 44 51 65 77 40 50 132 120 206 158 60 30 121
51 121 41 0 -11 -77 -90 -120 -124 -33 -25 -33 -26 -7 -17 47 16 119 78 160
136 46 64 66 72 32 12z m2138 -268 c84 -157 159 -419 156 -545 l-1 -40 -10 45
c-41 197 -117 438 -132 423 -4 -4 -6 -3 -5 2 2 6 -6 30 -18 55 -58 122 -83
181 -84 197 0 16 -1 16 -9 -2 -6 -16 -8 -12 -7 15 1 19 -2 46 -6 60 -4 14 10
-9 31 -50 22 -41 60 -113 85 -160z m-903 -106 c33 -13 66 -24 74 -24 7 0 21
-17 29 -37 23 -59 56 -253 43 -253 -2 0 -15 18 -30 40 -14 22 -30 40 -35 40
-5 0 -15 -31 -22 -70 -7 -38 -15 -70 -18 -70 -3 0 -16 23 -28 50 -12 28 -26
50 -31 50 -5 0 -20 -24 -33 -52 l-24 -53 -5 80 c-7 119 -3 143 31 161 31 16
41 41 12 29 -62 -24 -154 -34 -260 -27 -110 7 -132 3 -94 -17 17 -10 16 -16
-28 -103 l-46 -93 -3 40 c-5 72 -10 74 -54 25 -22 -25 -38 -37 -34 -27 3 10 6
29 6 43 0 33 197 225 265 259 54 27 152 46 198 38 15 -3 55 -16 87 -29z
m-2172 -714 c6 -25 18 -65 27 -89 8 -24 14 -45 13 -45 -15 -7 -82 -30 -115
-41 l-43 -13 -9 37 c-16 60 -31 163 -31 216 0 54 -2 51 100 113 l35 21 6 -77
c4 -42 12 -97 17 -122z m2169 -291 c-31 -73 -93 -136 -173 -176 -75 -37 -79
-38 -173 -34 -53 1 -116 3 -140 4 l-44 1 39 33 c69 60 191 106 317 120 69 7
76 23 10 23 -116 0 -243 -38 -318 -96 -25 -19 -45 -31 -45 -28 0 4 16 28 36
55 26 36 53 57 102 81 65 32 69 33 215 35 81 1 155 7 165 12 24 13 25 8 9 -30z
m797 -488 c-2 -220 -17 -265 -109 -325 -46 -31 -207 -96 -237 -96 -4 0 23 31
61 68 89 90 220 310 265 450 10 28 18 52 19 52 1 0 1 -67 1 -149z m-238 -3
c-3 -13 -12 -60 -21 -105 -14 -75 -93 -295 -113 -315 -4 -4 -37 -11 -72 -14
l-65 -6 51 53 c118 125 173 225 208 382 4 15 9 27 11 27 3 0 3 -10 1 -22z"/>
<path d="M4860 4064 c-30 -14 -77 -28 -105 -31 -86 -9 -139 -48 -202 -147
-141 -221 -173 -260 -255 -317 -23 -17 -22 -17 32 -25 84 -14 220 -1 275 26
107 52 145 113 181 291 13 65 29 127 36 138 7 11 34 32 60 46 26 15 48 30 48
36 0 14 -10 11 -70 -17z m-146 -97 c-16 -17 -55 -82 -87 -143 -32 -61 -76
-129 -98 -152 -48 -51 -29 -56 28 -7 27 23 59 70 97 143 47 91 112 181 121
170 3 -3 -20 -132 -35 -194 -13 -59 -61 -135 -100 -162 -50 -33 -124 -52 -209
-52 l-75 0 45 48 c25 26 75 94 110 150 91 148 120 184 164 209 58 33 72 29 39
-10z"/>
<path d="M1066 3995 c-9 -35 -74 -98 -139 -135 -137 -77 -199 -169 -203 -300
-2 -41 -6 -104 -10 -139 -7 -59 -6 -63 12 -59 16 3 20 13 22 61 3 55 4 57 30
57 47 0 164 63 218 118 28 28 65 78 83 111 27 51 32 72 34 138 2 75 -17 173
-33 173 -4 0 -11 -11 -14 -25z m17 -155 c-7 -112 -93 -233 -206 -290 -54 -27
-107 -39 -107 -25 0 28 60 107 141 185 55 53 99 99 99 103 0 29 -212 -158
-240 -212 -23 -44 -26 -20 -5 40 26 73 64 117 153 177 88 58 151 114 153 135
4 35 14 -66 12 -113z"/>
<path d="M4093 2660 c-57 -20 -113 -50 -113 -61 0 -4 27 4 59 17 72 29 213 42
287 26 79 -17 159 -50 216 -89 l53 -36 -35 38 c-102 107 -321 157 -467 105z"/>
</g>
</svg>
