<?xml version="1.0" standalone="no"?>
<!DOCTYPE svg PUBLIC "-//W3C//DTD SVG 20010904//EN"
 "http://www.w3.org/TR/2001/REC-SVG-20010904/DTD/svg10.dtd">
<svg version="1.0" xmlns="http://www.w3.org/2000/svg"
 width="512.000000pt" height="512.000000pt" viewBox="0 0 512.000000 512.000000"
 preserveAspectRatio="xMidYMid meet">
<metadata>
Created by potrace 1.16, written by Peter Selinger 2001-2019
</metadata>
<g transform="translate(0.000000,512.000000) scale(0.100000,-0.100000)"
fill="#000000" stroke="none">
<path d="M2775 4774 c-114 -65 -248 -169 -346 -271 -334 -347 -396 -746 -135
-875 l63 -31 -27 -61 c-67 -149 -112 -334 -89 -362 7 -9 2 -28 -15 -63 -50
-98 -120 -156 -232 -190 -52 -17 -54 -18 -36 -34 10 -10 36 -26 58 -37 l39
-19 -75 0 c-41 0 -116 8 -167 18 -82 16 -91 16 -83 2 11 -21 55 -62 108 -99
l43 -31 -42 -11 c-124 -34 -227 -100 -269 -173 -37 -64 -37 -71 -2 -54 15 8
39 17 55 21 24 6 21 0 -31 -52 -39 -39 -71 -84 -93 -130 -25 -51 -38 -69 -49
-66 -140 50 -380 44 -594 -15 -321 -88 -591 -325 -680 -597 -28 -87 -37 -163
-22 -191 12 -24 14 -21 25 48 16 99 51 195 102 282 57 97 210 247 314 309 144
85 342 144 551 164 76 7 232 -11 272 -30 l23 -12 -26 -24 c-21 -20 -34 -23
-80 -21 -37 2 -68 -4 -99 -18 -26 -11 -46 -21 -46 -23 0 -2 53 -3 118 -3 78 0
125 -5 140 -13 32 -18 38 -9 11 17 l-23 21 45 46 c24 25 70 66 101 90 l58 45
52 -40 c29 -22 75 -48 103 -59 l50 -19 -45 -8 c-93 -14 -166 -38 -252 -80
-103 -52 -137 -74 -200 -134 -50 -47 -54 -67 -10 -50 28 11 262 28 262 19 0
-3 -22 -11 -49 -17 -195 -46 -419 -193 -515 -338 -20 -29 -36 -55 -36 -58 0
-2 39 7 88 20 78 21 232 45 240 37 2 -1 -23 -16 -56 -32 -202 -100 -384 -324
-525 -643 -24 -55 -22 -79 7 -79 5 0 19 -9 30 -19 43 -39 220 -141 227 -130 4
6 8 3 11 -8 9 -34 460 -243 528 -245 16 -1 27 -5 25 -9 -8 -11 199 -84 352
-123 34 -9 69 -19 78 -22 13 -5 15 19 17 197 l2 204 6 -205 c3 -113 7 -199 8
-192 2 10 6 10 18 -2 19 -20 23 -20 48 2 20 16 20 16 7 -1 -23 -29 -6 -30 28
-1 17 14 28 31 24 36 -4 7 -1 8 6 3 9 -5 5 -15 -15 -36 -15 -16 -26 -31 -23
-33 7 -7 307 -63 411 -77 79 -10 100 -10 112 1 13 10 16 10 16 -3 0 -10 15
-16 53 -20 207 -21 309 -28 392 -25 52 2 95 -1 95 -6 0 -5 69 -6 168 -2 196 7
303 16 298 25 -2 3 26 6 62 7 86 0 330 43 347 60 46 46 91 543 57 627 -6 15
-8 27 -4 27 21 0 102 -227 102 -290 1 -24 1 -25 16 -5 8 11 26 57 41 103 24
77 25 92 21 240 -4 138 -8 167 -32 236 -15 44 -35 91 -45 105 -10 14 -23 36
-30 48 -10 20 -9 21 18 13 46 -13 116 -58 159 -101 22 -21 42 -39 44 -39 2 0
1 28 -3 63 -8 74 -44 159 -89 210 -32 37 -32 37 -8 37 40 0 122 -28 162 -55
20 -13 36 -20 36 -16 0 8 -19 25 -97 91 -24 20 -31 50 -11 50 33 0 187 -87
236 -134 164 -154 275 -421 289 -694 6 -110 7 -113 24 -95 17 16 18 28 9 128
-25 313 -166 605 -354 734 -54 38 -156 85 -203 96 -39 8 -42 21 -8 37 33 15
32 25 -5 26 -51 1 -67 11 -109 65 -22 29 -61 68 -85 87 -40 30 -45 38 -38 60
9 33 9 176 -1 186 -4 4 -23 -11 -43 -35 -32 -37 -94 -81 -94 -66 0 3 12 23 27
46 26 39 38 118 20 135 -4 4 -23 -8 -42 -26 l-35 -34 -1 45 c0 24 -4 96 -8
159 l-8 115 28 45 c38 60 106 208 124 267 8 27 15 68 15 92 0 29 6 48 16 56 9
6 22 34 29 61 l12 49 81 -4 c70 -3 87 0 142 25 96 43 163 131 235 309 65 162
79 240 80 435 0 142 -3 186 -18 235 -20 64 -67 155 -92 175 -13 11 -15 6 -15
-38 0 -65 -35 -267 -61 -356 -42 -140 -122 -266 -191 -302 -20 -11 -43 -13
-73 -8 -36 5 -48 12 -64 40 -11 19 -32 40 -47 46 -15 7 -36 33 -51 62 -162
324 -618 567 -1013 543 -103 -7 -235 -37 -315 -71 -39 -18 -57 -20 -82 -13
-23 7 -39 5 -64 -7 -122 -61 -132 66 -23 327 14 34 68 147 120 251 52 103 94
190 92 191 -2 2 -39 -17 -83 -41z m-45 -146 c-117 -226 -201 -448 -200 -527 1
-59 22 -84 90 -106 79 -25 100 -51 107 -132 5 -52 2 -69 -21 -119 -32 -70 -49
-90 -98 -115 -65 -33 -186 -21 -295 30 -50 24 -68 39 -97 83 -45 68 -60 127
-51 197 33 263 244 555 544 752 40 27 75 49 76 49 2 0 -23 -51 -55 -112z m670
-552 c25 -9 34 -13 20 -11 -14 3 -74 8 -135 11 -134 7 -275 -13 -379 -55 -49
-20 -75 -26 -83 -19 -7 6 -11 14 -8 18 7 12 120 48 201 65 90 19 320 13 384
-9z m1293 -79 c53 -167 44 -408 -24 -608 -31 -96 -105 -240 -145 -288 -65 -75
-166 -112 -251 -92 l-48 12 3 112 c2 64 9 128 17 149 8 20 17 58 20 85 l7 48
44 -4 c61 -4 96 13 150 72 84 94 145 249 180 461 9 58 20 106 24 106 3 0 14
-24 23 -53z m-1050 -48 c64 -74 147 -259 147 -327 0 -14 2 -23 6 -20 3 3 5 32
5 65 1 72 -35 171 -90 254 -22 33 -38 59 -36 59 3 0 43 -23 90 -51 277 -163
425 -405 425 -695 0 -72 -2 -85 -14 -75 -8 7 -16 46 -20 109 -7 89 -34 219
-55 260 -5 9 -25 51 -45 92 -19 42 -58 100 -86 130 -56 60 -56 51 -1 -20 78
-102 135 -269 147 -432 l7 -90 -44 34 c-149 113 -369 225 -575 291 -137 44
-244 65 -411 80 l-132 12 39 59 c70 106 171 196 288 255 58 30 152 49 244 50
l76 1 35 -41z m-393 -395 c149 -22 390 -103 559 -189 90 -45 263 -161 331
-223 l55 -49 -12 -82 c-15 -98 -18 -104 -44 -91 -11 7 -17 16 -12 23 4 6 13
41 19 77 12 62 12 66 -10 88 l-22 23 -12 -77 c-7 -43 -14 -79 -16 -82 -3 -2
-28 15 -57 38 -169 133 -502 280 -747 329 -94 19 -364 46 -393 39 -8 -1 -15 2
-16 7 -3 12 23 93 50 153 l19 45 106 -8 c58 -3 149 -13 202 -21z m-125 -235
c131 -13 205 -28 340 -71 l100 -32 -40 -8 c-45 -10 -112 2 -215 37 -100 34
-185 41 -255 20 -94 -27 -130 -82 -86 -136 17 -21 29 -24 139 -29 l120 -6 116
-58 c109 -54 120 -58 172 -54 85 7 140 58 152 141 l7 48 85 -43 c85 -44 254
-148 248 -154 -2 -1 -22 1 -45 6 -40 9 -182 -2 -205 -16 -18 -12 -49 -94 -43
-114 11 -35 44 -44 162 -41 64 1 121 -3 132 -9 11 -5 36 -30 56 -54 l37 -45
-48 -106 c-26 -58 -50 -108 -54 -110 -4 -2 -5 18 -2 45 9 101 -21 141 -158
208 -97 47 -98 48 -84 21 7 -15 19 -29 25 -31 7 -2 -8 -10 -32 -17 -24 -7 -52
-20 -61 -29 -22 -19 -22 -21 1 56 15 49 16 61 5 51 -40 -33 -55 -75 -144 -389
-20 -69 -62 -120 -101 -120 -38 0 -80 31 -100 73 -10 23 -19 34 -19 25 0 -25
-5 -23 -60 17 -111 81 -208 96 -323 50 -34 -14 -78 -28 -99 -31 l-36 -6 -7 55
c-7 57 8 228 25 289 6 18 10 37 10 41 0 18 -85 -41 -127 -87 l-44 -49 6 39
c20 155 30 202 64 304 43 129 80 211 126 285 l32 50 59 -3 c32 -1 109 -7 169
-13z m-349 -120 c-60 -127 -102 -250 -122 -356 -18 -95 -24 -237 -11 -267 6
-16 11 -13 37 25 35 54 114 140 107 117 -15 -46 -29 -188 -24 -244 4 -35 2
-64 -2 -64 -15 0 -23 52 -22 133 1 42 -2 77 -6 77 -5 0 -22 -21 -38 -46 -16
-25 -37 -49 -47 -53 -18 -6 -17 -8 2 -28 12 -14 27 -20 38 -17 13 5 14 4 3 -4
-11 -8 -9 -12 10 -23 13 -7 26 -11 29 -10 2 1 6 -2 8 -8 6 -19 -13 -12 -56 19
-51 37 -75 71 -66 95 4 10 3 16 -2 13 -14 -9 -5 228 12 305 20 92 60 210 94
279 24 49 25 56 10 48 -10 -6 -22 -10 -27 -10 -4 1 9 10 29 20 21 11 46 37 59
60 39 69 31 37 -15 -61z m-227 -151 c-5 -29 -11 -64 -15 -77 -5 -17 -4 -22 4
-17 8 5 10 2 6 -8 -3 -9 -11 -14 -17 -13 -7 1 -12 -8 -11 -20 0 -13 -2 -21 -4
-18 -9 8 -41 -48 -35 -58 4 -6 1 -7 -7 -2 -10 6 -12 4 -7 -9 4 -9 3 -15 -1
-12 -5 3 -16 -9 -26 -25 -15 -25 -16 -32 -4 -46 12 -15 11 -15 -9 -5 -25 14
-32 3 -28 -43 3 -28 2 -29 -7 -7 -12 25 -34 31 -24 6 3 -9 2 -12 -4 -9 -6 4
-32 -11 -58 -33 -26 -21 -70 -52 -99 -67 -28 -16 -49 -33 -47 -37 3 -4 -1 -5
-9 -3 -7 3 -27 -1 -43 -10 -16 -8 -39 -15 -51 -15 -13 0 -23 -4 -23 -10 0 -9
45 -25 114 -38 22 -4 41 -14 44 -22 2 -9 0 -11 -5 -5 -4 6 -37 16 -73 24 -60
12 -116 37 -165 75 -19 14 -17 15 30 16 166 1 366 120 479 285 59 86 65 100
76 173 10 60 16 82 24 82 1 0 -1 -24 -5 -52z m-189 -38 c36 -38 45 -80 18 -80
-69 0 -119 -112 -75 -168 8 -10 3 -20 -17 -40 -22 -23 -28 -25 -36 -12 -58 90
-9 328 68 330 8 0 26 -13 42 -30z m1462 -370 c-5 -47 20 -95 44 -86 9 3 12 1
9 -4 -4 -6 12 -10 41 -10 l47 0 -7 -32 c-3 -18 -14 -39 -23 -45 -26 -20 -93
-15 -148 11 -50 23 -125 95 -125 119 0 17 48 63 80 76 14 5 39 10 55 10 30 1
30 0 27 -39z m-57 -192 c36 -16 70 -22 122 -23 56 0 71 -3 72 -15 3 -155 0
-190 -18 -250 -30 -94 -31 -95 -77 -80 -58 19 -89 45 -141 117 -48 68 -100
102 -154 103 l-27 0 17 33 c9 17 30 75 46 129 l29 96 41 -43 c22 -25 63 -54
90 -67z m-1190 53 c3 -11 31 -42 61 -70 91 -84 174 -90 334 -24 66 27 94 34
127 30 47 -5 135 -54 191 -106 30 -26 32 -30 10 -17 -16 9 -28 13 -28 9 0 -4
-6 1 -13 12 -8 10 -19 15 -25 11 -7 -4 -12 -2 -12 4 0 6 -4 8 -10 5 -5 -3 -10
-2 -10 2 0 5 -24 17 -54 27 -66 23 -104 18 -207 -25 -69 -28 -80 -30 -154 -24
-44 3 -91 6 -105 7 -14 0 -20 3 -13 5 7 3 -1 16 -21 34 -35 30 -53 38 -40 17
4 -7 3 -8 -5 -4 -6 4 -10 13 -9 19 2 7 -7 26 -20 44 -23 32 -29 63 -13 63 5 0
12 -9 16 -19z m-410 -79 c-6 -5 -26 -15 -45 -22 -19 -8 -51 -23 -70 -35 -35
-21 -128 -52 -143 -47 -5 1 -6 -2 -3 -7 3 -5 -1 -12 -10 -15 -8 -3 -13 -2 -10
2 2 4 -19 9 -47 10 -58 2 -55 -9 11 -38 27 -12 44 -15 53 -8 11 7 9 8 -5 4
-16 -6 -17 -4 -6 9 10 12 15 13 21 3 4 -7 3 -18 -2 -24 -12 -14 13 -26 38 -18
15 5 16 4 3 -6 -12 -9 -8 -10 20 -6 26 5 30 4 15 -3 -12 -6 -14 -10 -6 -10 8
-1 12 -3 9 -6 -14 -15 -241 88 -298 136 -25 20 -25 20 -2 14 13 -4 67 -6 120
-6 101 0 202 21 297 60 54 22 75 26 60 13z m1483 -189 c15 -11 44 -45 64 -76
43 -64 86 -99 142 -117 46 -15 122 -8 165 15 41 21 41 2 -1 -45 -20 -24 -26
-27 -18 -11 10 19 10 22 -2 15 -13 -9 -18 -10 -52 -12 -14 -2 -16 -5 -7 -15 6
-8 7 -17 3 -22 -4 -4 4 -4 18 0 l25 7 -27 -21 c-29 -24 -38 -26 -38 -10 0 5 5
7 10 4 6 -3 10 -1 10 4 0 6 -6 11 -12 12 -10 0 -10 2 0 6 23 9 -8 33 -43 33
-53 0 -165 70 -165 103 0 5 -6 4 -14 -2 -12 -10 -14 -9 -10 7 7 23 -36 93 -53
87 -7 -2 -10 2 -7 10 6 15 -50 35 -99 35 -18 0 -26 4 -21 11 10 17 101 5 132
-18z m-345 -50 c59 -17 162 -67 172 -83 11 -18 -89 -11 -190 15 -102 26 -190
69 -179 87 8 13 126 2 197 -19z m-1383 -10 c0 -5 -16 -9 -36 -10 -19 -1 -41
-6 -47 -11 -7 -5 -45 -19 -86 -31 -40 -12 -102 -37 -138 -56 l-64 -33 55 -12
c31 -6 56 -13 56 -15 0 -2 -54 -3 -120 -2 -66 1 -120 2 -120 4 0 5 159 90 206
110 83 36 294 76 294 56z m888 -276 c19 -22 51 -20 154 9 60 16 74 17 144 5
146 -24 203 -47 263 -107 82 -81 112 -71 136 43 8 39 20 84 27 100 10 24 12
25 15 8 2 -11 13 -50 23 -86 17 -56 18 -75 9 -123 -14 -76 1 -150 51 -254 l40
-83 -43 34 c-46 38 -102 69 -109 62 -3 -3 -2 -24 1 -48 3 -23 5 -55 3 -70 -4
-29 -4 -29 -26 13 -26 49 -73 110 -85 110 -5 0 -14 -27 -21 -60 -7 -33 -16
-62 -19 -64 -3 -2 -7 35 -7 83 -1 47 -6 103 -12 123 -7 25 -7 38 0 40 6 2 -10
25 -36 50 -54 55 -124 84 -238 101 -73 10 -80 10 -128 -13 -63 -29 -74 -43
-27 -35 l34 7 -4 -64 c-4 -76 -30 -203 -48 -238 -13 -24 -13 -24 -25 20 -7 25
-16 53 -22 63 -9 17 -11 17 -28 2 -10 -9 -30 -43 -45 -77 -32 -72 -33 -71 -76
67 -17 55 -34 103 -38 107 -4 4 -24 -18 -44 -48 l-37 -57 0 79 c0 84 25 194
61 275 18 39 29 49 77 70 l57 25 3 -26 c2 -14 11 -33 20 -43z m-228 -104 c-41
-127 -36 -311 10 -383 12 -19 14 -17 40 70 l23 75 22 -70 c12 -39 34 -94 50
-123 34 -62 41 -59 81 34 30 72 35 71 54 -18 7 -32 16 -58 19 -58 13 0 61 93
81 157 12 37 24 98 27 135 7 75 17 81 26 15 12 -85 -46 -257 -111 -330 -21
-23 -56 -18 -59 8 -5 52 -8 65 -13 65 -7 0 -34 -61 -33 -75 0 -6 -9 -12 -21
-13 -23 -1 -86 61 -86 85 0 8 -4 11 -10 8 -5 -3 -7 0 -4 9 3 8 -1 27 -9 42
l-15 28 -14 -49 c-10 -39 -19 -51 -36 -53 -12 -2 -22 2 -22 8 0 6 -5 8 -12 4
-7 -4 -8 -3 -4 5 4 6 1 25 -8 41 -8 17 -18 55 -21 85 -4 30 -11 52 -16 49 -5
-3 -7 1 -4 8 4 11 24 153 28 201 1 9 4 17 8 17 7 0 23 52 24 75 0 11 17 26 23
20 2 -1 -6 -34 -18 -72z m1060 -159 c6 -18 20 -41 31 -53 11 -12 17 -21 14
-21 -3 0 8 -27 25 -59 27 -55 56 -176 40 -166 -4 3 -10 -9 -14 -25 -7 -37 -35
-51 -50 -25 -16 26 -77 95 -85 95 -4 0 -8 -7 -8 -15 0 -58 -61 -155 -98 -155
-8 0 -17 12 -21 28 -3 15 -11 47 -18 72 l-12 45 -31 -46 c-17 -25 -47 -56 -66
-69 -20 -14 -33 -28 -30 -33 3 -5 -4 -4 -16 2 -25 14 -25 15 -5 150 10 63 14
130 10 166 -4 43 -3 56 5 48 16 -16 23 -158 11 -243 -6 -41 -9 -76 -7 -79 11
-10 74 69 90 114 10 28 21 53 25 58 8 9 58 -91 66 -133 4 -16 12 -30 19 -30
19 0 45 70 48 127 1 29 5 53 8 53 3 0 34 -29 69 -65 34 -36 65 -63 69 -60 3 4
5 28 5 53 -1 33 -15 75 -47 142 -25 53 -47 117 -51 145 -6 51 -2 47 24 -21z
m508 -304 c66 -77 115 -188 126 -286 17 -148 10 -312 -15 -338 -10 -11 -10
-19 -13 199 -2 134 -6 171 -25 228 -12 37 -27 67 -34 68 -9 0 -9 2 0 5 7 3 9
12 6 20 -3 7 -9 12 -13 9 -5 -3 -6 5 -3 17 4 19 3 20 -7 8 -9 -13 -10 -12 -6
5 6 20 -13 51 -56 97 -10 10 -15 18 -10 18 4 0 26 -22 50 -50z"/>
<path d="M3067 2999 c-40 -12 -124 -82 -146 -122 -17 -33 2 -63 73 -111 106
-74 254 -104 346 -73 46 16 65 68 52 145 l-9 53 42 -7 c31 -4 51 -1 76 12 l34
19 -65 6 c-37 3 -107 21 -162 42 -106 40 -183 52 -241 36z m119 -81 c1 -27 8
-55 15 -64 21 -25 67 -42 97 -35 26 5 25 6 -8 11 -26 4 -36 11 -38 26 -4 28
25 39 48 19 13 -12 20 -13 25 -5 5 8 10 9 18 1 7 -7 6 -15 -3 -26 -11 -13 -10
-14 4 -9 13 5 16 -1 16 -39 0 -28 -6 -52 -15 -61 -35 -35 -139 -33 -235 3 -56
21 -150 86 -157 108 -6 19 81 101 119 112 18 5 51 9 73 8 l40 -2 1 -47z"/>
</g>
</svg>
